<?xml version="1.0" encoding="UTF-8"?>
<svg width="24px" height="24px" viewBox="0 0 24 24" version="1.1" xmlns="http://www.w3.org/2000/svg" xmlns:xlink="http://www.w3.org/1999/xlink">
    <!-- Generator: Sketch 55 (78076) - https://sketchapp.com -->
    <title>icon / chevron / down</title>
    <desc>Created with Sketch.</desc>
    <defs>
        <path d="M18.8200426,7.70004261 C18.4334198,7.31341975 17.8080945,7.31122597 17.4179582,7.70051231 L12.7020418,12.4061544 C12.3143148,12.7930366 11.6880945,12.7954407 11.2979582,12.4061544 L6.58204182,7.70051231 C6.19431483,7.31363005 5.56955624,7.31044376 5.17995739,7.70004261 L4.70004261,8.17995739 C4.31341975,8.56658025 4.3235178,9.2035178 4.70994663,9.58994663 L11.2900534,16.1700534 C11.6821461,16.5621461 12.3235178,16.5564822 12.7099466,16.1700534 L19.2900534,9.58994663 C19.6821461,9.19785393 19.6895562,8.56955624 19.2999574,8.17995739 L18.8200426,7.70004261 Z" id="path-1"></path>
    </defs>
    <g id="icon-/-chevron-/-down" stroke="none" stroke-width="1" fill="none" fillRule="evenodd">
        <mask id="mask-2" fill="white">
            <use xlink:href="#path-1"></use>
        </mask>
        <use id="Shape" fill-opacity="0.7" fill="#000000" xlink:href="#path-1"></use>
        <g id="Color-/-brand-/-darkblue" mask="url(#mask-2)" fill="#162259">
            <g transform="translate(12.000000, 12.000000) rotate(180.000000) translate(-12.000000, -12.000000) ">
                <rect x="0" y="0" width="24" height="24"></rect>
            </g>
        </g>
    </g>
</svg>
