<?xml version="1.0" encoding="UTF-8"?>
<svg width="24px" height="24px" viewBox="0 0 24 24" version="1.1" xmlns="http://www.w3.org/2000/svg" xmlns:xlink="http://www.w3.org/1999/xlink">
    <title>13176583-163D-4F8E-AD59-43F913D4F2BB</title>
    <defs>
        <path d="M4,8.57164286 L4,18.8573571 L2.2,18.8573571 C1.86865,18.8573571 1.6,19.1451964 1.6,19.5002143 L1.6,20.5716429 L22.4,20.5716429 L22.4,19.5002143 C22.4,19.1451964 22.13135,18.8573571 21.8,18.8573571 L20,18.8573571 L20,8.57164286 L16.8,8.57164286 L16.8,18.8573571 L13.6,18.8573571 L13.6,8.57164286 L10.4,8.57164286 L10.4,18.8573571 L7.2,18.8573571 L7.2,8.57164286 L4,8.57164286 Z M22.8,21.4287857 L1.2,21.4287857 C0.53725,21.4287857 0,22.0044107 0,22.7145 L0,23.5716429 C0,23.8083214 0.1791,24.0002143 0.4,24.0002143 L23.6,24.0002143 C23.8209,24.0002143 24,23.8083214 24,23.5716429 L24,22.7145 C24,22.0044107 23.46275,21.4287857 22.8,21.4287857 L22.8,21.4287857 Z M24,5.14307589 L24,6.00021429 C24,6.23689542 23.8209,6.42878795 23.6,6.42878795 L22.4,6.42878795 L22.4,7.07164397 C22.4,7.42666121 22.13135,7.7145 21.8,7.7145 L2.2,7.7145 C1.86865,7.7145 1.6,7.42666121 1.6,7.07164397 L1.6,6.42878795 L0.4,6.42878795 C0.1791,6.42878795 0,6.23689542 0,6.00021429 L0,5.14307589 C0,4.96966548 0.0975,4.81339789 0.24705,4.74707658 L11.84705,0.0327990506 C11.945,-0.0106473026 12.05505,-0.0106473026 12.15295,0.0327990506 L23.75295,4.74707658 C23.9025,4.81339789 24,4.96966548 24,5.14307589 L24,5.14307589 Z" id="path-1"></path>
    </defs>
    <g id="MFS_2021_till_CF" stroke="none" stroke-width="1" fill="none" fillRule="evenodd">
        <g id="2021_MFS_-various_send_methods" transform="translate(-532.000000, -867.000000)">
            <g id="Group-10" transform="translate(-1.000000, 750.000000)">
                <g id="card" transform="translate(207.000000, 83.000000)">
                    <g id="send_method_gruopp" transform="translate(193.000000, 32.000000)">
                        <g id="to" transform="translate(133.000000, 0.000000)">
                            <g id="icon-/-mic" transform="translate(0.000000, 2.000000)">
                                <mask id="mask-2" fill="white">
                                    <use xlink:href="#path-1"></use>
                                </mask>
                                <use id="Fill-1-Copy-5" fill="#4D4D4D" xlink:href="#path-1"></use>
                                <g id="Group" mask="url(#mask-2)" fill="#6B6B6B">
                                    <g id="Color-/-brand-/-darkblue">
                                        <rect id="Color-/-ui-/grey-01" x="0" y="0" width="24" height="24"></rect>
                                    </g>
                                </g>
                            </g>
                        </g>
                    </g>
                </g>
            </g>
        </g>
    </g>
</svg>
