<?xml version="1.0" encoding="UTF-8"?>
<svg width="25px" height="24px" viewBox="0 0 25 24" version="1.1" xmlns="http://www.w3.org/2000/svg" xmlns:xlink="http://www.w3.org/1999/xlink">
    <title>738A7198-8107-4195-A535-3E693F735239</title>
    <defs>
        <path d="M23.4052342,1.15380424 L18.6825744,0.0289436868 C18.1688035,-0.0934470661 17.6436346,0.181381346 17.4357922,0.681959995 L15.256103,5.93182486 C15.0648312,6.39253217 15.1918952,6.92828917 15.5677077,7.24568561 L18.3203373,9.57050054 C16.6867965,13.1646449 13.8275438,16.1568199 10.2714264,17.8790092 L8.01926255,15.0376313 C7.71178483,14.6496956 7.19277039,14.5185328 6.74646031,14.7159747 L1.66065517,16.965977 C1.17585597,17.1804304 0.90943438,17.7224934 1.0280458,18.2529784 L2.11775415,23.1279835 C2.23100716,23.6345621 2.66871599,24 3.17967146,24 C14.808631,24 24.25,14.2719273 24.25,2.24997726 C24.25,1.72610171 23.8997058,1.27155436 23.4052342,1.15380424 Z" id="path-1"></path>
    </defs>
    <g id="MFS_2021_till_CF" stroke="none" stroke-width="1" fill="none" fillRule="evenodd">
        <g id="2021_MFS_-various_send_methods" transform="translate(-532.000000, -989.000000)">
            <g id="Group-10" transform="translate(-1.000000, 750.000000)">
                <g id="card-copy" transform="translate(207.000000, 203.000000)">
                    <g id="send_method_gruopp" transform="translate(193.000000, 32.000000)">
                        <g id="to" transform="translate(133.000000, 0.000000)">
                            <g id="icon-/-office" transform="translate(0.000000, 4.000000)">
                                <mask id="mask-2" fill="white">
                                    <use xlink:href="#path-1"></use>
                                </mask>
                                <use id="Path" fill="#0061C2" fillRule="nonzero" xlink:href="#path-1"></use>
                                <g id="Group" mask="url(#mask-2)" fill="#6B6B6B">
                                    <g id="Color-/-brand-/-darkblue">
                                        <rect id="Color-/-ui-/grey-01" x="0" y="0" width="24" height="24"></rect>
                                    </g>
                                </g>
                            </g>
                        </g>
                    </g>
                </g>
            </g>
        </g>
    </g>
</svg>
