<?xml version="1.0" encoding="UTF-8"?>
<svg width="24px" height="24px" viewBox="0 0 24 24" version="1.1" xmlns="http://www.w3.org/2000/svg" xmlns:xlink="http://www.w3.org/1999/xlink">
    <!-- Generator: sketchtool 60.1 (101010) - https://sketch.com -->
    <title>0849F851-3804-4020-A563-ADC2CAA44EF7</title>
    <desc>Created with sketchtool.</desc>
    <defs>
        <path d="M16.125,13 C16.125,15.2734375 14.2734375,17.125 12,17.125 C9.7265625,17.125 7.875,15.2734375 7.875,13 C7.875,10.7265625 9.7265625,8.875 12,8.875 C14.2734375,8.875 16.125,10.7265625 16.125,13 M17.625,13 C17.625,9.896875 15.103125,7.375 12,7.375 C8.896875,7.375 6.375,9.896875 6.375,13 C6.375,16.103125 8.896875,18.625 12,18.625 C15.103125,18.625 17.625,16.103125 17.625,13 M24,6.25 L24,19.75 C24,20.9921875 22.9921875,22 21.75,22 L2.25,22 C1.0078125,22 0,20.9921875 0,19.75 L0,6.25 C0,5.0078125 1.0078125,4 2.25,4 L6.375,4 L6.9515625,2.4578125 C7.2796875,1.58125 8.11875,1 9.05625,1 L14.9390625,1 C15.8765625,1 16.715625,1.58125 17.04375,2.4578125 L17.625,4 L21.75,4 C22.9921875,4 24,5.0078125 24,6.25"
        id="clear-path-1"></path>
    </defs>
    <g id="Asset-Artboard-Page" stroke="none" stroke-width="1" fill="inherit" fillRule="evenodd">
        <g id="icon-/-camera">
            <g>
                <mask id="mask-2">
                    <use xlink:href="#clear-path-1"></use>
                </mask>
                <use xlink:href="#clear-path-1"></use>
                <g mask="url(#mask-2)" fill="#006EC2">
                    <rect x="0" y="0" width="24" height="24"></rect>
                </g>
            </g>
        </g>
    </g>
</svg>
