<svg xmlns="http://www.w3.org/2000/svg" width="18" height="15" viewBox="0 0 18 15" fill="none">
  <path d="M15.871 0.0159686C15.2406 -0.0830955 14.7555 0.296787 14.4972 0.657429C12.37 3.62674 10.2487 6.60031 8.1334 9.57812L7.9848 9.78689C7.59741 9.3652 7.20893 8.94451 6.81936 8.52484C5.64097 7.25237 4.44968 5.9919 3.24568 4.74362C2.79212 4.27491 2.01803 4.01087 1.32294 4.42023C0.975812 4.62349 0.660272 4.87642 0.386333 5.17099C-0.210098 5.81613 -0.0422624 6.71017 0.392474 7.25134C2.25372 9.55966 4.26385 11.7439 6.41001 13.79C7.4772 14.8052 9.14164 14.6865 10.0561 13.5341C11.4046 11.8353 13.8632 8.59975 17.6743 3.10292C18.0198 2.60351 18.1671 1.84333 17.7275 1.22316C17.138 0.391348 16.4065 0.100296 15.871 0.0159686Z" fill="#008844"/>
</svg>
