<svg xmlns="http://www.w3.org/2000/svg" width="18" height="18" viewBox="0 0 18 18" fill="none">
  <path fillRule="evenodd" clipRule="evenodd" d="M7.11696 0.922012C7.41996 0.763012 8.00196 0.563012 8.99996 0.563012V0.562012C9.99896 0.562012 10.58 0.763012 10.884 0.922012C11.114 1.04301 11.247 1.23301 11.324 1.39301C11.527 1.81605 11.7121 2.24743 11.879 2.68601C12.282 2.87014 12.6664 3.09249 13.027 3.35001C13.613 3.25401 14.175 3.20401 14.427 3.18401C14.6466 3.16335 14.867 3.21459 15.055 3.33001C15.343 3.51201 15.808 3.91701 16.308 4.78201C16.806 5.64601 16.924 6.25101 16.938 6.59201C16.948 6.85101 16.85 7.06201 16.75 7.20901C16.485 7.59701 16.203 7.97301 15.906 8.33701C15.948 8.77801 15.948 9.22201 15.906 9.66301C16.2029 10.0271 16.4845 10.4034 16.75 10.791C16.8776 10.9713 16.9433 11.1882 16.937 11.409C16.924 11.749 16.807 12.354 16.307 13.219C15.809 14.084 15.344 14.487 15.055 14.67C14.836 14.808 14.603 14.829 14.427 14.816C13.9586 14.7798 13.4918 14.7244 13.028 14.65C12.6671 14.9076 12.2823 15.13 11.879 15.314C11.671 15.868 11.433 16.38 11.324 16.608C11.247 16.767 11.114 16.958 10.884 17.078C10.581 17.237 9.99896 17.438 8.99996 17.438C8.00196 17.438 7.41996 17.237 7.11696 17.078C6.88696 16.957 6.75296 16.767 6.67696 16.607C6.47396 16.184 6.28896 15.753 6.12196 15.314C5.71896 15.13 5.33396 14.907 4.97396 14.65C4.5098 14.7247 4.04273 14.7801 3.57396 14.816C3.39796 14.83 3.16496 14.809 2.94596 14.67C2.65796 14.488 2.19296 14.084 1.69296 13.218C1.19396 12.354 1.07696 11.749 1.06296 11.408C1.05695 11.1875 1.12256 10.9711 1.24996 10.791C1.51596 10.403 1.79696 10.027 2.09396 9.66301C2.05196 9.22201 2.05196 8.77801 2.09396 8.33701C1.79696 7.97301 1.51596 7.59601 1.24996 7.20901C1.15096 7.06201 1.05296 6.85101 1.06296 6.59101C1.07696 6.25101 1.19396 5.64601 1.69396 4.78101C2.19196 3.91701 2.65696 3.51301 2.94596 3.33001C3.13395 3.21459 3.35434 3.16335 3.57396 3.18401C4.04296 3.22001 4.50896 3.27501 4.97296 3.35001C5.33384 3.09243 5.7186 2.87008 6.12196 2.68601C6.32996 2.13201 6.56796 1.62001 6.67696 1.39201C6.75296 1.23301 6.88696 1.04201 7.11696 0.922012ZM11.0172 8.87247C11.1706 8.56234 11.2502 8.22098 11.25 7.87501C11.2499 7.49234 11.1523 7.11599 10.9663 6.78156C10.7803 6.44712 10.5121 6.16565 10.1871 5.96376C9.86197 5.76186 9.49077 5.64621 9.10854 5.62774C8.72632 5.60928 8.3457 5.6886 8.00267 5.85822C7.65964 6.02784 7.36554 6.28214 7.14817 6.59709C6.93081 6.91203 6.79736 7.27721 6.76045 7.6581C6.72354 8.03899 6.78439 8.423 6.93724 8.77382C7.09009 9.12464 7.32988 9.43069 7.63396 9.66301C6.85198 10.0101 6.23035 10.6404 5.89396 11.427C5.8689 11.4864 5.86151 11.5518 5.87268 11.6153C5.88386 11.6788 5.91312 11.7377 5.95696 11.785C6.34298 12.2079 6.81303 12.5455 7.33702 12.7762C7.86102 13.007 8.42741 13.1258 8.99996 13.125C9.57258 13.1256 10.139 13.0066 10.663 12.7757C11.187 12.5448 11.657 12.207 12.043 11.784C12.0867 11.7367 12.1159 11.6777 12.1271 11.6143C12.1382 11.5508 12.1309 11.4854 12.106 11.426C11.7693 10.6398 11.1477 10.01 10.366 9.66301C10.641 9.45315 10.8639 9.18261 11.0172 8.87247Z" fill="#0061C2"/>
</svg>
