<svg width="24" height="24" viewBox="0 0 24 24" fill="none" xmlns="http://www.w3.org/2000/svg">
<g clip-path="url(#clip0_727_89)">
<path d="M18.552 13.7815C18.1147 13.7658 17.6873 13.9148 17.3546 14.199C17.0218 14.4833 16.8079 14.8821 16.755 15.3165L16.553 16.967C16.5457 17.0277 16.5164 17.0835 16.4707 17.124C16.4251 17.1646 16.3661 17.187 16.305 17.187H7.69503C7.63396 17.187 7.57501 17.1646 7.52932 17.124C7.48363 17.0835 7.45436 17.0277 7.44703 16.967L7.24453 15.316C7.1916 14.8818 6.97766 14.4832 6.64501 14.199C6.31237 13.9149 5.88523 13.7659 5.44803 13.7815C4.20053 13.8265 3.14303 13.876 2.43053 13.9115C2.20436 13.922 1.98246 13.9769 1.77753 14.0732C1.5726 14.1694 1.38865 14.3052 1.2362 14.4726C1.08375 14.64 0.96579 14.8358 0.889062 15.0488C0.812333 15.2618 0.778342 15.4879 0.78903 15.714C0.85603 17.114 1.02753 19.8205 1.42603 21.405C1.69603 22.475 2.64453 22.9875 3.54703 23.053C4.77153 23.142 7.23603 23.25 12 23.25C16.764 23.25 19.2285 23.142 20.453 23.053C21.3555 22.988 22.304 22.4745 22.5735 21.405C22.9725 19.8205 23.1435 17.1145 23.2105 15.714C23.2213 15.4879 23.1874 15.2618 23.1107 15.0487C23.034 14.8357 22.9161 14.6399 22.7637 14.4724C22.6113 14.305 22.4274 14.1692 22.2225 14.0729C22.0176 13.9765 21.7957 13.9215 21.5695 13.911C20.857 13.876 19.7995 13.827 18.552 13.7815Z" fill="white"/>
<path d="M12 0.75C11.617 0.75 11.263 0.768 10.955 0.7925C10.1265 0.8595 9.54749 1.5565 9.51599 2.3565L9.32149 7.284C8.78399 7.299 8.32699 7.318 7.93949 7.339C7.36599 7.3705 6.92349 7.665 6.73599 8.1005C6.54799 8.537 6.63999 9.0595 7.01949 9.493C7.51343 10.0544 8.02331 10.6017 8.54849 11.134C9.68199 12.289 10.5305 12.9415 11.0935 13.3045C11.3624 13.4818 11.6774 13.5763 11.9995 13.5763C12.3216 13.5763 12.6366 13.4818 12.9055 13.3045C13.4685 12.9415 14.317 12.2895 15.4505 11.134C15.976 10.6015 16.4862 10.0541 16.9805 9.4925C17.3595 9.059 17.4515 8.537 17.2635 8.1005C17.076 7.665 16.6335 7.3705 16.06 7.339C15.6725 7.318 15.215 7.299 14.6775 7.284L14.483 2.3565C14.4515 1.5565 13.8725 0.8595 13.044 0.7925C12.6967 0.764386 12.3484 0.750208 12 0.75Z" fill="white"/>
</g>
<defs>
<clipPath id="clip0_727_89">
<rect width="24" height="24" fill="white"/>
</clipPath>
</defs>
</svg>
