<svg width="18" height="18" viewBox="0 0 18 18" fill="none" xmlns="http://www.w3.org/2000/svg">
<path d="M17.7539 15.5628L14.2488 12.0577C14.0906 11.8995 13.8762 11.8116 13.6512 11.8116H13.0781C14.0484 10.5706 14.625 9.00969 14.625 7.31165C14.625 3.27219 11.352 -0.000854492 7.3125 -0.000854492C3.27305 -0.000854492 0 3.27219 0 7.31165C0 11.3511 3.27305 14.6241 7.3125 14.6241C9.01055 14.6241 10.5715 14.0476 11.8125 13.0773V13.6503C11.8125 13.8753 11.9004 14.0898 12.0586 14.248L15.5637 17.7531C15.8941 18.0835 16.4285 18.0835 16.7555 17.7531L17.7504 16.7581C18.0809 16.4277 18.0809 15.8933 17.7539 15.5628ZM7.3125 11.8116C4.82695 11.8116 2.8125 9.80071 2.8125 7.31165C2.8125 4.8261 4.82344 2.81165 7.3125 2.81165C9.79805 2.81165 11.8125 4.82258 11.8125 7.31165C11.8125 9.79719 9.80156 11.8116 7.3125 11.8116Z" fill="white"/>
</svg>
