<svg width="24" height="30" viewBox="0 0 24 30" fill="none" xmlns="http://www.w3.org/2000/svg">
<g id="Group">
<g id="1711464248205-1094062_validated-bookmark--bookmarks-double-tags-favorite-check-read">
<path id="1711464248205-1094062_Union" d="M12 0.666687C7.67471 0.666687 4.98937 1.05135 3.39404 1.42669C1.72404 1.82069 0.782041 3.26602 0.668707 4.80069C0.519374 6.81002 0.333374 10.4907 0.333374 16.3334C0.333374 20.972 0.401374 24.0147 0.488041 26.0107C0.544707 27.302 1.09737 28.4194 2.17804 28.9207C3.23404 29.41 4.45271 29.1494 5.50671 28.4574L10.354 25.276C10.843 24.9551 11.4152 24.7841 12 24.7841C12.5849 24.7841 13.1571 24.9551 13.646 25.276L18.4927 28.4574C19.5474 29.1494 20.766 29.41 21.822 28.9207C22.902 28.4194 23.4554 27.302 23.512 26.0107C23.5987 24.0147 23.6667 20.972 23.6667 16.3334C23.6667 10.4907 23.48 6.81002 23.3314 4.80069C23.218 3.26602 22.276 1.82069 20.606 1.42735C19.0107 1.05135 16.3254 0.666687 12 0.666687Z" fill="#0061C2"/>
<path id="1711464248205-1094062_Vector 1455 (Stroke)" fillRule="evenodd" clipRule="evenodd" d="M18.1467 7.27668C18.4268 7.49235 18.6098 7.81043 18.6554 8.16097C18.701 8.5115 18.6056 8.86582 18.3901 9.14601L12.2367 17.146C12.1202 17.2976 11.9725 17.4223 11.8036 17.5117C11.6347 17.6012 11.4485 17.6533 11.2577 17.6645C11.0669 17.6757 10.8759 17.6457 10.6976 17.5766C10.5194 17.5075 10.3581 17.4009 10.2247 17.264L5.7114 12.632C5.46466 12.3786 5.32868 12.0376 5.33337 11.684C5.33806 11.3304 5.48303 10.9931 5.7364 10.7463C5.98977 10.4996 6.33078 10.3636 6.68441 10.3683C7.03805 10.373 7.37533 10.518 7.62207 10.7713L11.0607 14.3007L16.2767 7.52068C16.4923 7.2405 16.8103 7.0574 17.1609 7.01165C17.5114 6.96589 17.8665 7.06122 18.1467 7.27668Z" fill="#DFF1FB"/>
</g>
</g>
</svg>
