<svg xmlns="http://www.w3.org/2000/svg" width="18" height="18" viewBox="0 0 18 18" fill="none">
  <path d="M9 0C4.02823 0 0 4.02823 0 9C0 13.9718 4.02823 18 9 18C13.9718 18 18 13.9718 18 9C18 4.02823 13.9718 0 9 0ZM16.2581 9C16.2581 9.81653 16.1165 10.604 15.8661 11.3371H15.1294C14.9734 11.3371 14.8246 11.2754 14.7157 11.1629L13.5544 9.97984C13.3911 9.8129 13.3911 9.54072 13.5581 9.37379L14.0117 8.92016V8.60444C14.0117 8.49556 13.9681 8.39032 13.8919 8.31411L13.5508 7.97298C13.4746 7.89677 13.3694 7.85323 13.2605 7.85323H12.6798C12.4548 7.85323 12.2698 7.66815 12.2698 7.44315C12.2698 7.33427 12.3133 7.22903 12.3895 7.15282L12.7306 6.81169C12.8069 6.73548 12.9121 6.69194 13.021 6.69194H14.1823C14.4073 6.69194 14.5923 6.50686 14.5923 6.28186V5.94073C14.5923 5.71573 14.4073 5.53064 14.1823 5.53064H12.8504C12.531 5.53064 12.2698 5.79193 12.2698 6.11129V6.2746C12.2698 6.525 12.1101 6.74637 11.8742 6.82621L10.7274 7.20726C10.6077 7.24718 10.5278 7.35605 10.5278 7.48306V7.5629C10.5278 7.72258 10.3972 7.85323 10.2375 7.85323H9.65685C9.49718 7.85323 9.36653 7.72258 9.36653 7.5629C9.36653 7.40323 9.23589 7.27258 9.07621 7.27258H8.96371C8.85484 7.27258 8.75323 7.33427 8.70242 7.43226L8.36129 8.11089C8.26331 8.30685 8.06371 8.43024 7.84234 8.43024H7.04032C6.72097 8.43024 6.45968 8.16895 6.45968 7.8496V6.93145C6.45968 6.77903 6.52137 6.63024 6.63024 6.52137L7.35968 5.79194C7.52661 5.625 7.62097 5.39637 7.62097 5.15686C7.62097 5.03347 7.70081 4.92097 7.82056 4.88105L9.27218 4.39839C9.33387 4.37661 9.38831 4.34395 9.43185 4.3004L10.4044 3.32782C10.4806 3.25161 10.5242 3.14637 10.5242 3.0375C10.5242 2.8125 10.3391 2.62742 10.1141 2.62742H9.3629L8.78226 3.20806V3.49839C8.78226 3.65806 8.65161 3.78871 8.49193 3.78871H7.91129C7.75161 3.78871 7.62097 3.65806 7.62097 3.49839V2.77258C7.62097 2.68185 7.66452 2.59476 7.7371 2.54032L8.78589 1.75282C8.85484 1.74919 8.92379 1.74194 8.99274 1.74194C13.0028 1.74194 16.2581 4.99718 16.2581 9ZM4.72137 5.12056C4.72137 5.01169 4.76492 4.90645 4.84113 4.83024L5.7629 3.90847C5.83911 3.83226 5.94435 3.78871 6.05323 3.78871C6.27823 3.78871 6.46331 3.97379 6.46331 4.19879V4.77944C6.46331 4.88831 6.41976 4.99355 6.34355 5.06976L6.00242 5.41089C5.92621 5.4871 5.82097 5.53064 5.7121 5.53064H5.13145C4.90645 5.53064 4.72137 5.34556 4.72137 5.12056ZM9.36653 16.2399V15.9823C9.36653 15.6629 9.10524 15.4016 8.78589 15.4016H8.05282C7.66089 15.4016 7.08387 15.2093 6.76815 14.9734L5.9625 14.3673C5.54516 14.0552 5.30202 13.5653 5.30202 13.0464V12.179C5.30202 11.5984 5.60685 11.0613 6.10403 10.7637L7.66089 9.83105C7.91855 9.67863 8.2125 9.59516 8.51008 9.59516H9.64234C10.0379 9.59516 10.419 9.73669 10.7165 9.99073L12.2843 11.3371H12.9484C13.2569 11.3371 13.5508 11.4605 13.7685 11.6782L14.3964 12.306C14.5198 12.4294 14.6903 12.4984 14.8645 12.4984H15.3508C14.175 14.6359 11.9468 16.1093 9.36653 16.2399Z" fill="#0061C2"/>
</svg>
