<svg xmlns="http://www.w3.org/2000/svg" width="18" height="18" fill="none" viewBox="0 0 18 18">
  <path fill="#0061C2" fill-rule="evenodd" d="M9 .563c-.998 0-1.58.2-1.883.359-.23.12-.364.311-.44.47-.109.228-.347.74-.555 1.294a6.93 6.93 0 0 0-1.149.664c-.464-.075-.93-.13-1.399-.166-.22-.02-.44.03-.628.146-.289.183-.754.587-1.252 1.451-.5.865-.617 1.47-.631 1.81-.01.26.088.471.187.618.266.387.547.764.844 1.128a6.993 6.993 0 0 0 0 1.326c-.297.364-.578.74-.844 1.128a1.02 1.02 0 0 0-.187.617c.014.341.131.946.63 1.81.5.866.965 1.27 1.253 1.452.219.139.452.16.628.146.469-.036.936-.091 1.4-.166.36.257.745.48 1.148.664.167.439.352.87.555 1.293.076.16.21.35.44.471.303.159.885.36 1.883.36.999 0 1.581-.201 1.884-.36.23-.12.363-.311.44-.47.109-.228.347-.74.555-1.294a6.934 6.934 0 0 0 1.149-.664c.464.074.93.13 1.399.166.176.013.409-.008.628-.146.289-.183.754-.586 1.252-1.451.5-.865.617-1.47.63-1.81a1.02 1.02 0 0 0-.187-.618 16.85 16.85 0 0 0-.844-1.128 6.993 6.993 0 0 0 0-1.326c.297-.364.579-.74.844-1.128.1-.147.198-.358.188-.617-.014-.341-.132-.946-.63-1.81-.5-.865-.965-1.27-1.253-1.452a1.018 1.018 0 0 0-.628-.146c-.252.02-.814.07-1.4.166a6.931 6.931 0 0 0-1.148-.664 16.8 16.8 0 0 0-.555-1.293c-.077-.16-.21-.35-.44-.471C10.58.763 9.999.562 9 .562v.001Z" clip-rule="evenodd"/>
  <path fill="#DFF1FB" fill-rule="evenodd" d="M11.25 7.875a2.247 2.247 0 0 1-.884 1.788 3.388 3.388 0 0 1 1.74 1.763.335.335 0 0 1-.063.358A4.115 4.115 0 0 1 9 13.125a4.115 4.115 0 0 1-3.043-1.34.335.335 0 0 1-.063-.358 3.387 3.387 0 0 1 1.74-1.764 2.25 2.25 0 1 1 3.616-1.788Z" clip-rule="evenodd"/>
</svg>
