<svg xmlns="http://www.w3.org/2000/svg" width="30" height="30" viewBox="0 0 30 30" fill="none">
  <path fillRule="evenodd" clipRule="evenodd" d="M0 15C0 23.284 6.716 30 15 30C23.284 30 30 23.284 30 15C30 6.716 23.284 0 15 0C6.716 0 0 6.716 0 15Z" fill="#B50156"/>
  <path fillRule="evenodd" clipRule="evenodd" d="M12.4267 9.09131C12.3647 8.22731 12.7527 7.37731 13.5933 7.16597C14.0536 7.05299 14.5261 6.99724 15 6.99997C15.556 6.99997 16.0253 7.06997 16.4073 7.16597C17.2473 7.37731 17.6353 8.22731 17.574 9.09131C17.4473 10.8886 17.204 14.0106 16.9413 15.76C16.8547 16.3366 16.508 16.8326 15.9333 16.9293C15.6873 16.9713 15.38 17 15 17C14.62 17 14.3127 16.9706 14.0667 16.9293C13.492 16.8326 13.1447 16.3366 13.0587 15.76C12.796 14.0106 12.554 10.8886 12.4267 9.09131ZM15 23.6666C15.6188 23.6666 16.2123 23.4208 16.6499 22.9832C17.0875 22.5456 17.3333 21.9521 17.3333 21.3333C17.3333 20.7145 17.0875 20.121 16.6499 19.6834C16.2123 19.2458 15.6188 19 15 19C14.3812 19 13.7877 19.2458 13.3501 19.6834C12.9125 20.121 12.6667 20.7145 12.6667 21.3333C12.6667 21.9521 12.9125 22.5456 13.3501 22.9832C13.7877 23.4208 14.3812 23.6666 15 23.6666Z" fill="#F4CFE0"/>
</svg>
