<?xml version="1.0" encoding="UTF-8"?>
<svg width="64px" height="64px" viewBox="0 0 64 64" version="1.1" xmlns="http://www.w3.org/2000/svg" xmlns:xlink="http://www.w3.org/1999/xlink">
    <!-- Generator: Sketch 54.1 (76490) - https://sketchapp.com -->
    <title>icon / stor / möbler</title>
    <desc>Created with Sketch.</desc>
    <defs>
        <path d="M19.75,29.75 L19.75,34.85 L45.25,34.85 L45.25,29.75 C45.25,26.9370313 47.5370312,24.65 50.35,24.65 L52.9,24.65 C52.9,20.4265625 49.4734375,17 45.25,17 L19.75,17 C15.5265625,17 12.1,20.4265625 12.1,24.65 L14.65,24.65 C17.4629688,24.65 19.75,26.9370313 19.75,29.75 Z M52.9,27.2 L50.35,27.2 C48.9395312,27.2 47.8,28.3395313 47.8,29.75 L47.8,37.4 L17.2,37.4 L17.2,29.75 C17.2,28.3395313 16.0604687,27.2 14.65,27.2 L12.1,27.2 C9.28703125,27.2 7,29.4870312 7,32.3 C7,34.180625 8.0359375,35.80625 9.55,36.6907813 L9.55,46.325 C9.55,47.02625 10.12375,47.6 10.825,47.6 L15.925,47.6 C16.62625,47.6 17.2,47.02625 17.2,46.325 L17.2,45.05 L47.8,45.05 L47.8,46.325 C47.8,47.02625 48.37375,47.6 49.075,47.6 L54.175,47.6 C54.87625,47.6 55.45,47.02625 55.45,46.325 L55.45,36.6907813 C56.9640625,35.80625 58,34.180625 58,32.3 C58,29.4870312 55.7129687,27.2 52.9,27.2 Z" id="path-1"></path>
    </defs>
    <g id="icon-/-stor-/-möbler" stroke="none" stroke-width="1" fill="none" fill-rule="evenodd">
        <g>
            <mask id="mask-2" fill="white">
                <use xlink:href="#path-1"></use>
            </mask>
            <use id="Shape" fill="#9B9B9B" fill-rule="nonzero" xlink:href="#path-1"></use>
            <g id="color-/-greyscale-/-smoke-/-3" mask="url(#mask-2)" fill="#636F7B">
                <rect x="0" y="0" width="64" height="64"></rect>
            </g>
        </g>
    </g>
</svg>