<?xml version="1.0" encoding="UTF-8"?>
<svg width="32px" height="29px" viewBox="0 0 32 29" version="1.1" xmlns="http://www.w3.org/2000/svg" xmlns:xlink="http://www.w3.org/1999/xlink">
    <!-- Generator: Sketch 60.1 (88133) - https://sketch.com -->
    <title>Group 6 Copy 19</title>
    <desc>Created with Sketch.</desc>
    <defs>
        <polygon id="path-1" points="5.96855898e-13 0.962066196 31.8538667 0.962066196 31.8538667 29 5.96855898e-13 29"></polygon>
    </defs>
    <g id="Page-1" stroke="none" stroke-width="1" fill="none" fill-rule="evenodd">
        <g id="19-11-14-Ämnessida_steg1" transform="translate(-912.000000, -718.000000)">
            <g id="Group-6-Copy-19" transform="translate(912.000000, 718.000000)">
                <path d="M15.4995356,4 C18.6272576,4 19.2683559,0.511627907 18.9114147,0 C18.9114147,0 17.9163664,0.511627907 15.4995356,0.511627907 C13.0827048,0.511627907 12.0886535,0 12.0886535,0 C11.7317124,0.511627907 12.3718136,4 15.4995356,4" id="Fill-1" fill="#FFFFFF"></path>
                <g id="Group-5">
                    <mask id="mask-2" fill="black">
                        <use xlink:href="#path-1"></use>
                    </mask>
                    <g id="Clip-4"></g>
                    <path d="M31.8074667,5.14588889 C31.7456,4.96544444 31.5962667,4.81722222 31.4224,4.73666667 L25.4810667,1.99025926 C24.2245333,1.5617037 22.8752,1.22337037 21.5824,0.975259259 C21.2112,0.902222222 20.7184,1.13959259 20.6341333,1.51014815 C20.168,3.58418519 18.552,5.1662963 15.8917333,5.1662963 C13.2325333,5.1662963 11.6517333,3.58418519 11.1834667,1.51014815 C11.1002667,1.13959259 10.6234667,0.902222222 10.2522667,0.975259259 C8.95946667,1.22337037 7.61973333,1.5617037 6.36213333,1.99025926 L0.426133333,4.73666667 C0.252266667,4.81722222 0.102933333,4.96544444 0.0421333333,5.14588889 C-0.0208,5.32740741 -0.0154666667,5.52611111 0.0730666667,5.69688889 L2.63306667,10.7944444 C2.78453333,11.0994815 3.144,11.2498519 3.46826667,11.151037 L5.28053333,10.614 L5.28053333,27.9925185 C5.28053333,28.5488889 5.72853333,29 6.28106667,29 L25.6122667,29 C26.1658667,29 26.6138667,28.5488889 26.6138667,27.9925185 L26.6138667,10.614 L28.4058667,11.151037 C28.728,11.2498519 29.0874667,11.0994815 29.2389333,10.7944444 L31.7872,5.69688889 C31.8757333,5.52611111 31.8704,5.32740741 31.8074667,5.14588889" id="Fill-3" fill="#FFFFFF" mask="url(#mask-2)"></path>
                </g>
            </g>
        </g>
    </g>
</svg>