<?xml version="1.0" encoding="UTF-8"?>
<svg width="32px" height="32px" viewBox="0 0 32 32" version="1.1" xmlns="http://www.w3.org/2000/svg" xmlns:xlink="http://www.w3.org/1999/xlink">
    <!-- Generator: Sketch 60.1 (88133) - https://sketch.com -->
    <title>wrench</title>
    <desc>Created with Sketch.</desc>
    <g id="Page-1" stroke="none" stroke-width="1">
        <g transform="translate(-256.000000, -716.000000)">
            <g id="wrench" transform="translate(256.000000, 716.000000)">
                <path d="M31.2186321,12.5 C31.8220402,12.5 32.1996569,13.1346843 31.8885448,13.6327467 C30.2544119,16.249496 27.2778581,18 23.8767775,18 C18.7366488,18 14.5660607,14.0016216 14.533879,9.05756029 C14.5015674,4.0918115 18.7217258,0 23.8769073,0 C27.2742896,0 30.2481183,1.74681207 31.8834191,4.35893644 C32.1973211,4.86037381 31.8263873,5.5 31.2185023,5.5 L24.3958383,5.5 L21.8005346,9 L24.3958383,12.5 L31.2186321,12.5 Z M20.0816001,18.312683 L7.08873134,30.82843 C5.46705584,32.3904921 2.83794834,32.3905546 1.21620796,30.82843 C-0.405402654,29.2663054 -0.405402654,26.733681 1.21620796,25.1715564 L14.2086874,12.6562469 C15.2571901,15.2310588 17.4075938,17.3021833 20.0816001,18.312683 Z M6.74777332,26.9999938 C6.74777332,26.1715561 6.05060987,25.4999938 5.19059112,25.4999938 C4.33057236,25.4999938 3.63340891,26.1715561 3.63340891,26.9999938 C3.63340891,27.8284307 4.33057236,28.4999938 5.19059112,28.4999938 C6.05060987,28.4999938 6.74777332,27.8284307 6.74777332,26.9999938 Z" id="Shape"></path>
            </g>
        </g>
    </g>
</svg>