<?xml version="1.0" encoding="utf-8"?>
<!-- Generator: Adobe Illustrator 21.0.2, SVG Export Plug-In . SVG Version: 6.00 Build 0)  -->
<svg version="1.1" id="Lager_1" xmlns="http://www.w3.org/2000/svg" xmlns:xlink="http://www.w3.org/1999/xlink" x="0px" y="0px"
	 viewBox="0 0 32 26" style="enable-background:new 0 0 32 26;" xml:space="preserve">
<style type="text/css">
	.st0{fill:#FFFFFF;}
</style>
<title>Fill 1</title>
<desc>Created with Sketch.</desc>
<path d="M31.2,20.8H19.077c-0.037,0.99-0.736,1.6-1.637,1.6H14.4c-0.934,0-1.65-0.874-1.638-1.6H0.8c-0.442,0-0.8,0.358-0.8,0.8v0.8
	c0.005,1.765,1.435,3.195,3.2,3.2h25.6c1.765-0.005,3.195-1.435,3.2-3.2v-0.8C32,21.158,31.642,20.8,31.2,20.8L31.2,20.8z"/>
<path d="M28.8,2.4c-0.004-1.324-1.076-2.396-2.4-2.4H5.6C4.276,0.004,3.204,1.076,3.2,2.4v16.8h25.6V2.4z"/>
<rect x="6.4" y="3.2" class="st0" width="19.2" height="12.8"/>
<path d="M11.6,11.2h2.8V14c0,0.221,0.179,0.4,0.4,0.4h2.4c0.221,0,0.4-0.179,0.4-0.4v-2.8h2.8c0.221,0,0.4-0.179,0.4-0.4V8.4
	c0-0.221-0.179-0.4-0.4-0.4h-2.8V5.2c0-0.221-0.179-0.4-0.4-0.4h-2.4c-0.221,0-0.4,0.179-0.4,0.4V8h-2.8c-0.221,0-0.4,0.179-0.4,0.4
	v2.4C11.2,11.021,11.379,11.2,11.6,11.2L11.6,11.2z"/>
</svg>
