<svg width="100" height="42" viewBox="0 0 100 42" fill="none" xmlns="http://www.w3.org/2000/svg">
<g clip-path="url(#clip0_7365_6064)">
<path d="M99.6233 37.4078C99.6233 39.7356 97.69 41.6299 95.3133 41.6299H4.68698C2.31028 41.6299 0.37666 39.7356 0.37666 37.4078V4.5921C0.37666 2.26395 2.31028 0.369987 4.68698 0.369987H95.3133C97.69 0.369987 99.6233 2.26395 99.6233 4.5921V37.4078ZM95.3133 -0.000156403H4.68698C2.10261 -0.000156403 0 2.05996 0 4.5921V37.4078C0 39.94 2.10261 42 4.68698 42H95.3133C97.8975 42 100 39.94 100 37.4078V4.5921C100 2.05996 97.8975 -0.000156403 95.3133 -0.000156403Z" fill="white"/>
<path d="M10.8686 15.0698L12.5648 13.047L16.0447 19.1545H18.0451L13.7697 11.6223L17.6855 6.9495H15.5521L10.8686 12.7219V6.9495H9.11273V19.1545H10.8686V15.0698Z" fill="white"/>
<path d="M22.7981 17.8861C21.4652 17.8861 20.6696 16.6952 20.6696 14.7006C20.6696 12.706 21.4652 11.5153 22.7981 11.5153C24.131 11.5153 24.9267 12.706 24.9267 14.7006C24.9267 16.6952 24.131 17.8861 22.7981 17.8861ZM22.7981 10.0836C20.5191 10.0836 19.0466 11.8958 19.0466 14.7006C19.0466 17.5055 20.5191 19.3179 22.7981 19.3179C25.0771 19.3179 26.5498 17.5055 26.5498 14.7006C26.5498 11.8958 25.0771 10.0836 22.7981 10.0836Z" fill="white"/>
<path d="M30.005 12.6795C30.5772 12.1079 31.5061 11.5154 32.2666 11.5154C33.1066 11.5154 33.4649 11.9017 33.4649 12.8072V19.1545H35.0879V12.7746C35.0879 11.0896 34.0768 10.0836 32.3828 10.0836C31.5651 10.0836 30.7344 10.4474 30.005 11.1174V10.247H28.382V19.1545H30.005V12.6795Z" fill="white"/>
<path d="M40.34 17.8861C39.3972 17.8861 38.6019 17.4657 38.0403 16.6703L37.9136 16.4908L36.6198 17.4504L36.7473 17.6179C37.5598 18.6825 38.9151 19.3179 40.3731 19.3179C41.932 19.3179 43.6098 18.4759 43.6098 16.6269C43.6098 14.6745 41.8561 14.1607 40.447 13.7478C39.2936 13.4097 38.5934 13.1612 38.5934 12.5624C38.5934 11.897 39.0847 11.5153 39.9412 11.5153C40.7577 11.5153 41.3354 11.8278 42.0017 12.6296L42.1419 12.7984L43.2783 11.8156L43.1759 11.663C42.5627 10.7508 41.2748 10.1013 40.0431 10.0836L39.9932 10.0833C38.1807 10.0833 37.0225 11.0367 36.9704 12.5719C36.9107 14.43 38.5951 14.9088 39.9483 15.2934C41.2167 15.654 41.9868 15.928 41.9868 16.692C41.9868 17.2692 41.5542 17.8861 40.34 17.8861Z" fill="white"/>
<path d="M48.0309 19.3179C48.8482 19.3179 49.6788 18.9541 50.4082 18.2841V19.1545H52.0319V10.2469H50.4082V16.7219C49.8364 17.2936 48.9076 17.8861 48.147 17.8861C47.3071 17.8861 46.9486 17.4998 46.9486 16.5944V10.2469H45.3257V16.6269C45.3257 18.3119 46.3369 19.3179 48.0309 19.3179Z" fill="white"/>
<path d="M63.5456 10.0836C62.626 10.0836 61.6843 10.5035 60.8666 11.2724C60.4374 10.5224 59.6108 10.0836 58.5955 10.0836C57.7862 10.0836 56.9266 10.4497 56.2346 11.0733V10.247H54.6113V19.1545H56.2346V12.6998C56.8482 12.112 57.4871 11.5154 58.4293 11.5154C59.1804 11.5154 59.5611 11.9719 59.5611 12.8726V19.1545H61.1848V12.6996C61.7984 12.1118 62.4377 11.5154 63.3797 11.5154C64.1305 11.5154 64.5113 11.9719 64.5113 12.8726V19.1545H66.1346V12.8726C66.1346 10.5674 64.7264 10.0836 63.5456 10.0836Z" fill="white"/>
<path d="M69.5924 13.7074C69.6939 12.7999 70.1151 11.5153 71.6851 11.5153C72.7691 11.5153 73.4625 12.3493 73.5265 13.7074H69.5924ZM75.392 17.2378L75.5034 17.0477L74.1905 16.3793L74.0901 16.5574C73.6056 17.4142 72.8225 17.8861 71.8845 17.8861C70.604 17.8861 69.6251 16.7194 69.5453 15.1392H75.155V14.1457C75.155 11.6021 73.8455 10.0836 71.652 10.0836C69.3835 10.0836 67.9171 11.8958 67.9171 14.7006C67.9171 18.1086 70.0544 19.3179 71.8845 19.3179C73.8944 19.3179 74.7581 18.3182 75.392 17.2378Z" fill="white"/>
<path d="M78.8261 12.6795C79.3978 12.1079 80.3266 11.5154 81.0873 11.5154C81.9271 11.5154 82.2854 11.9017 82.2854 12.8072V19.1545H83.9091V12.7746C83.9091 11.0896 82.8975 10.0836 81.2036 10.0836C80.3861 10.0836 79.5556 10.4474 78.8261 11.1172V10.247H77.2024V19.1545H78.8261V12.6795Z" fill="white"/>
<path d="M86.8375 17.7041C86.8375 19.0436 87.66 19.3179 88.8942 19.3179C89.5175 19.3179 90.0625 19.2655 90.3533 19.1778L90.5042 19.1321V17.7684L90.2567 17.8069C89.915 17.8603 89.5783 17.8861 89.2275 17.8861C88.4608 17.8861 88.4608 17.6403 88.4608 17.5082V11.6783H90.4542V10.2469H88.4608V7.45554H86.8375V10.2469H85.425V11.6783H86.8375V17.7041Z" fill="white"/>
<path d="M12.6649 30.8058L10.6136 24.2387H8.95398L11.7431 33.1467H13.6544L16.374 24.2387H14.7164L12.6649 30.8058Z" fill="white"/>
<path d="M18.6453 27.6991C18.7464 26.7918 19.1676 25.5075 20.738 25.5075C21.822 25.5075 22.5152 26.341 22.5793 27.6991H18.6453ZM23.1425 30.5494C22.6585 31.4061 21.8751 31.8778 20.9374 31.8778C19.6568 31.8778 18.678 30.7113 18.5982 29.1313H24.2073V28.1377C24.2073 25.5938 22.8979 24.0753 20.7048 24.0753C18.4359 24.0753 16.9698 25.8877 16.9698 28.6925C16.9698 32.1005 19.1071 33.3101 20.9374 33.3101C22.9475 33.3101 23.8108 32.3102 24.4446 31.2297L24.556 31.0396L23.2433 30.3712L23.1425 30.5494Z" fill="white"/>
<path d="M27.5629 25.4507V24.2387H25.9399V33.1467H27.5629V28.2681C28.1487 26.4749 28.9128 25.7313 30.1946 25.703L30.4034 25.6987V24.1078H30.1899C28.8984 24.1078 28.1539 24.6262 27.5629 25.4507Z" fill="white"/>
<path d="M38.6894 24.2387H36.6982L33.4932 28.1832V20.9414H31.87V33.1467H33.4932V30.4692L34.829 28.9647L37.0367 33.1467H38.9324L35.9587 27.6063L38.6894 24.2387Z" fill="white"/>
<path d="M41.2864 27.6991C41.3876 26.7918 41.8088 25.5075 43.3791 25.5075C44.4632 25.5075 45.1563 26.341 45.2204 27.6991H41.2864ZM45.7838 30.5494C45.2997 31.4061 44.5164 31.8778 43.5785 31.8778C42.2981 31.8778 41.3192 30.7113 41.2394 29.1313H46.8485V28.1377C46.8485 25.5938 45.5392 24.0753 43.3461 24.0753C41.0771 24.0753 39.6111 25.8877 39.6111 28.6925C39.6111 32.1005 41.7482 33.3101 43.5785 33.3101C45.5887 33.3101 46.452 32.3102 47.0858 31.2297L47.1972 31.0396L45.8846 30.3712L45.7838 30.5494Z" fill="white"/>
<path d="M51.5187 31.8778C50.7526 31.8778 50.7526 31.632 50.7526 31.5V25.6705H52.7456V24.2386H50.7526V21.4474H49.1292V24.2386H47.7174V25.6705H49.1292V31.696C49.1292 33.0353 49.9517 33.3101 51.1866 33.3101C51.8101 33.3101 52.3552 33.2576 52.6447 33.1698L52.7955 33.1242V31.7604L52.5484 31.799C52.2066 31.8522 51.8697 31.8778 51.5187 31.8778Z" fill="white"/>
<path d="M79.3275 21.4841H77.1834L72.4968 26.994V21.4841H70.7404V33.1467H72.4968V29.2464L74.1935 27.316L77.6759 33.1467H79.6814L75.4015 25.9529L79.3275 21.4841Z" fill="white"/>
<path d="M85.805 31.8233C83.2077 31.8233 82.6628 29.3717 82.6628 27.3153C82.6628 25.2584 83.2077 22.8069 85.805 22.8069C88.4017 22.8069 88.9467 25.2584 88.9467 27.3153C88.9467 29.3717 88.4017 31.8233 85.805 31.8233ZM85.805 21.3282C82.6918 21.3282 80.9067 23.5104 80.9067 27.3153C80.9067 31.1202 82.6918 33.3025 85.805 33.3025C88.9175 33.3025 90.7025 31.1202 90.7025 27.3153C90.7025 23.5104 88.9175 21.3282 85.805 21.3282Z" fill="white"/>
<path d="M61.5529 26.2958C60.6851 26.2958 59.9914 26.9776 59.9914 27.8306C59.9914 28.6816 60.6851 29.3728 61.5529 29.3728C62.4201 29.3728 63.123 28.6816 63.123 27.8306C63.123 26.9776 62.4201 26.2958 61.5529 26.2958Z" fill="white"/>
</g>
<defs>
<clipPath id="clip0_7365_6064">
<rect width="100" height="42" fill="white"/>
</clipPath>
</defs>
</svg>
