<?xml version="1.0" encoding="UTF-8"?>
<svg width="15px" height="10px" viewBox="0 0 15 10" version="1.1" xmlns="http://www.w3.org/2000/svg" xmlns:xlink="http://www.w3.org/1999/xlink">
    <!-- Generator: sketchtool 57 (101010) - https://sketch.com -->
    <title>6D092907-623D-4117-81DA-49945FBD4E56</title>
    <desc>Created with sketchtool.</desc>
    <defs>
        <path d="M0.39977221,0.368312189 C-0.133257403,0.857285124 -0.133257403,1.64716448 0.39977221,2.13613742 L5.70273349,7.00079124 L0.39977221,11.8654451 C-0.133257403,12.354418 -0.133257403,13.1442974 0.39977221,13.6332703 C0.932801822,14.1222432 1.79384966,14.1222432 2.32687927,13.6332703 L8.60022779,7.87843497 C9.1332574,7.38946204 9.1332574,6.59958268 8.60022779,6.11060974 L2.32687927,0.355774421 C1.80751708,-0.120660747 0.932801822,-0.120660747 0.39977221,0.368312189 Z" id="path-1"></path>
    </defs>
    <g id="Page-2" stroke="none" stroke-width="1" fill="none" fill-rule="evenodd">
        <g id="UX/UI-Master" transform="translate(-522.000000, -2525.000000)">
            <g id="Group-7" transform="translate(282.000000, 2490.000000)">
                <g id="Group-6" transform="translate(60.000000, 0.000000)">
                    <g id="Icon-/-Keyboard-Arrow---Right-/-Rounded-Copy-9" transform="translate(187.500000, 40.000000) rotate(-270.000000) translate(-187.500000, -40.000000) translate(183.000000, 33.000000)">
                        <mask id="mask-2" fill="white">
                            <use xlink:href="#path-1"></use>
                        </mask>
                        <g id="icon/navigation/chevron_right_24px" fill-rule="nonzero"></g>
                        <g id="↳-Icon-Color" mask="url(#mask-2)" fill="#0074CC">
                            <g transform="translate(-11.000000, -14.000000)" id="Rectangle">
                                <rect x="0" y="0" width="31" height="30"></rect>
                            </g>
                        </g>
                    </g>
                </g>
            </g>
        </g>
    </g>
</svg>