<?xml version="1.0" encoding="UTF-8"?>
<svg width="24px" height="24px" viewBox="0 0 24 24" version="1.1" xmlns="http://www.w3.org/2000/svg" xmlns:xlink="http://www.w3.org/1999/xlink">
    <!-- Generator: Sketch 54.1 (76490) - https://sketchapp.com -->
    <title>icon / external link</title>
    <desc>Created with Sketch.</desc>
    <defs>
        <path d="M10.9996739,15.3752038 L9.87536683,14.2495924 L17.7494294,4.79993478 L15.2751712,3.67497554 L15.500163,3 L22.2492663,3 L22.2492663,9.75040759 L21.5742908,9.97474729 L20.4493315,7.49983696 L10.9996739,15.3752038 Z M2.32803159,20.6713163 C2.1089091,20.4528459 2,20.1867686 2,19.8750408 L2,8.6247962 C2,8.31306837 2.1089091,8.0463389 2.32803159,7.82786856 C2.54650194,7.61005036 2.8119271,7.49983696 3.12495924,7.49983696 L10.9996739,7.49983696 L10.9996739,9.5247636 L4.25057063,9.5247636 L4.25057063,18.9750734 L15.500163,18.9750734 L15.500163,14.2495924 L17.7494294,14.2495924 L17.7494294,19.8750408 C17.7494294,20.1867686 17.6405203,20.4528459 17.4220499,20.6713163 C17.2029274,20.8904388 16.9375023,21 16.6244701,21 L3.12495924,21 C2.8119271,21 2.54650194,20.8904388 2.32803159,20.6713163 L2.32803159,20.6713163 Z" id="path-1"></path>
    </defs>
    <g id="icon-/-external-link" stroke="none" stroke-width="1" fill="none" fill-rule="evenodd">
        <g>
            <mask id="mask-2" fill="white">
                <use xlink:href="#path-1"></use>
            </mask>
            <use id="Fill-1" fill="#0074CC" xlink:href="#path-1"></use>
            <g id="color-/-brand-/-space-cadet" mask="url(#mask-2)" fill="#162259">
                <rect x="0" y="0" width="24" height="24"></rect>
            </g>
        </g>
    </g>
</svg>