<?xml version="1.0" encoding="UTF-8"?>
<svg viewBox="0 0 64 64" version="1.1" xmlns="http://www.w3.org/2000/svg" xmlns:xlink="http://www.w3.org/1999/xlink">
    <defs>
        <path d="M11.2890625,54 C10.5770703,54 10,53.4229297 10,52.7109375 C10,51.9989453 10.5770703,51.421875 11.2890625,51.421875 L34.578125,51.421875 C35.2901172,51.421875 35.8671875,51.9989453 35.8671875,52.7109375 C35.8671875,53.4229297 35.2901172,54 34.578125,54 L11.2890625,54 Z M11.2890625,48.84375 C10.5770703,48.84375 10,48.2666797 10,47.5546875 C10,46.8426953 10.5770703,46.265625 11.2890625,46.265625 L34.578125,46.265625 C35.2901172,46.265625 35.8671875,46.8426953 35.8671875,47.5546875 C35.8671875,48.2666797 35.2901172,48.84375 34.578125,48.84375 L11.2890625,48.84375 Z M10,42.3984375 C10,41.6864453 10.5770703,41.109375 11.2890625,41.109375 L34.578125,41.109375 C35.2901172,41.109375 35.8671875,41.6864453 35.8671875,42.3984375 C35.8671875,43.1104297 35.2901172,43.6875 34.578125,43.6875 L11.2890625,43.6875 C10.5770703,43.6875 10,43.1104297 10,42.3984375 Z M34.578125,25.46875 C36.4506172,25.46875 38.0149375,24.1303594 38.3687422,22.359875 L34.578125,20.4648672 L30.7875078,22.359875 C31.1413125,24.1303594 32.7056328,25.46875 34.578125,25.46875 Z M52.7109375,20.3125 C53.4232734,20.3125 54,20.8892266 54,21.6015625 L54,32 C54,32.7123359 53.4232734,33.2890625 52.7109375,33.2890625 L48.84375,33.2890625 L48.84375,52.7109375 C48.84375,53.4232734 48.2670234,54 47.5546875,54 L38.2079531,54 C38.3523281,53.5948047 38.4453125,53.1651172 38.4453125,52.7109375 C38.4453125,51.7169844 38.0579063,50.8185938 37.4395859,50.1328125 C38.0579063,49.4470312 38.4453125,48.5486406 38.4453125,47.5546875 C38.4453125,46.5607344 38.0579063,45.6623438 37.4395859,44.9765625 C38.0579063,44.2907812 38.4453125,43.3923906 38.4453125,42.3984375 C38.4453125,40.2660703 36.7104062,38.53125 34.578125,38.53125 L20.3984375,38.53125 L20.3984375,33.2890625 L16.53125,33.2890625 C15.8189141,33.2890625 15.2421875,32.7123359 15.2421875,32 L15.2421875,21.6015625 C15.2421875,20.8892266 15.8189141,20.3125 16.53125,20.3125 L29.1170547,20.3125 L33.2890625,18.2265391 L33.2890625,16.4453125 C33.2890625,15.7329766 33.8657891,15.15625 34.578125,15.15625 C35.2894297,15.15625 35.8671875,14.5784922 35.8671875,13.8671875 C35.8671875,13.1558828 35.2894297,12.578125 34.578125,12.578125 C33.8668203,12.578125 33.2890625,13.1558828 33.2890625,13.8671875 C33.2890625,14.5795234 32.7123359,15.15625 32,15.15625 C31.2876641,15.15625 30.7109375,14.5795234 30.7109375,13.8671875 C30.7109375,11.7349062 32.4458437,10 34.578125,10 C36.7104062,10 38.4453125,11.7349062 38.4453125,13.8671875 C38.4453125,15.5476953 37.3677422,16.9813906 35.8671875,17.5141172 L35.8671875,18.2265391 L40.0391953,20.3125 L52.7109375,20.3125 Z" id="path-1"></path>
    </defs>
    <g id="icon-/-stor-/-kläder" stroke="none" stroke-width="1" fill-rule="evenodd">
        <g>
            <mask id="mask-2">
                <use xlink:href="#path-1"></use>
            </mask>
            <use id="Combined-Shape" xlink:href="#path-1"></use>
            <g id="color-/-greyscale-/-smoke-/-3" mask="url(#mask-2)">
                <rect x="0" y="0" width="64" height="64"></rect>
            </g>
        </g>
    </g>
</svg>