<?xml version="1.0" encoding="UTF-8"?>
<svg viewBox="0 0 64 64" version="1.1" xmlns="http://www.w3.org/2000/svg" xmlns:xlink="http://www.w3.org/1999/xlink">
    <!-- Generator: Sketch 54.1 (76490) - https://sketchapp.com -->
    <title>icon / stor / annat</title>
    <desc>Created with Sketch.</desc>
    <defs>
        <path d="M13.5480938,25.4100312 L11.2660313,20.3340312 C10.5880313,18.8260625 11.2620938,17.0460312 12.7700625,16.3680312 L21.8920313,12.2660937 C22.6219688,11.9380625 23.436,11.9120937 24.186,12.1960625 C24.936,12.4800312 25.5280313,13.04 25.8580313,13.7700312 L30.7240313,24.5900937 C30.9499688,25.0940937 30.726,25.6860312 30.222,25.9120625 C30.0880313,25.9720625 29.9480625,26.0000937 29.8120313,26.0000937 C29.43,26.0000937 29.0659688,25.7800625 28.896,25.4080625 L24.03,14.5880937 C23.922,14.346125 23.724,14.1581562 23.4739688,14.064125 C23.2279688,13.9700937 22.956,13.9781562 22.71,14.088125 L13.5880313,18.1901562 C13.0880625,18.4160937 12.8620313,19.0100937 13.0880625,19.512125 L15.3720938,24.5900937 C15.5980313,25.0940937 15.3740625,25.6860312 14.8700625,25.9120625 C14.362125,26.1340625 13.774125,25.9120625 13.5480938,25.4100312 Z M34.8060937,25.2819688 L33.042,19.2819688 C32.898,18.7899687 33.1480312,18.2679688 33.6220312,18.074 C34.092,17.888 34.6420312,18.0760625 34.8820312,18.5280312 C35.268,19.2519687 36.9160312,20 39,20 C41.2900312,20 43.0000312,18.944 43.0000312,18.0000312 L43.0000312,12.0000312 C43.0000312,10.8980938 42.102,10.0000625 41.0000625,10.0000625 C39.898125,10.0000625 39.0000937,10.898 39.0000937,12.0000312 L39.0000937,12.9999688 C39.0000937,13.5519688 38.5520625,14 38.0000625,14 C37.4480625,14 37.0000312,13.5519688 37.0000312,13.0000625 L37.0000312,12.0000312 C37.0000312,9.794 38.7940312,8 41.0000625,8 C43.2060937,8 45.0000937,9.794 45,12.0000312 L45,18.0000312 C45,18.944 46.71,20 49.0000312,20 C51.0840937,20 52.7320312,19.2519687 53.116125,18.5280312 C53.356125,18.0759688 53.9001562,17.8839688 54.376125,18.074 C54.850125,18.2679688 55.1001562,18.7899687 54.9561562,19.2819688 L53.1921562,25.2819688 C53.068125,25.7079687 52.678125,26 52.234125,26 L35.764125,26 C35.3220937,26 34.930125,25.7079688 34.8060937,25.2819688 Z M54.0000937,27.9999688 C54.5520937,27.9999688 55.0000312,28.448 55.0000312,29 L55.0000312,47 C55.0000312,51.962 50.9620312,56 46.0000312,56 L18,56 C13.038,56 9,51.962 9,47 L9,29 C9,28.448 9.44803125,27.9999688 10.0000312,27.9999688 L54.0000937,27.9999688 Z M32.7000937,49.7 C32.9000625,49.52 33.0000937,49.2600313 33,48.9999688 C33,48.7399063 32.8999687,48.4799375 32.7,48.2999375 C32.3200312,47.9199688 31.68,47.9199688 31.3000312,48.2999375 C31.1000625,48.4799375 31.0000312,48.74 31.0000312,48.9999688 C31.0000312,49.2600313 31.1000625,49.52 31.3000312,49.7 C31.4800312,49.8999688 31.7400937,50 32.0000625,50 C32.260125,50 32.5200937,49.8999688 32.7000937,49.7 Z M33.0040312,43.2780313 C35.6580937,42.518 37.0020937,40.9980313 37.0020937,38.75 C37.0020937,36.1299688 34.7580937,33.9999688 32.0000625,33.9999688 C29.3680312,33.9999688 27.1720312,35.9519375 27.0020625,38.4459688 C26.9640937,38.9979688 27.3820312,39.4740313 27.9320625,39.512 C28.5140625,39.5460313 28.960125,39.134 28.9980937,38.582 C29.0960625,37.1340313 30.4140937,36.002 31.9980937,36.002 C33.6540937,36.002 35.0000625,37.2359375 35.0000625,38.7519688 C35.0000625,40.5420313 33.4720312,41.1360313 31.9760625,41.48 L31.7540625,41.534 C31.3120312,41.6460313 31.0040625,42.044 31.0040625,42.5 L31.002,45.0000313 C31.002,45.5500625 31.4500312,46.0000625 32.0020312,46.0000625 C32.5540312,46.0000625 33.0020625,45.5520312 33.0020625,45.0000313 L33.0040312,43.2780313 Z M15.3620625,18.6039687 L15.3820313,18.6039687 C15.9340313,18.6039687 16.3820625,19.052 16.3820625,19.604 C16.3820625,20.156 15.9340313,20.6040312 15.3820313,20.6040312 C14.8300313,20.6040312 14.3720625,20.156 14.3720625,19.604 C14.3720625,19.052 14.8100625,18.6039687 15.3620625,18.6039687 Z" id="path-1"></path>
    </defs>
    <g id="icon-/-stor-/-annat" stroke="none" stroke-width="1" fill-rule="evenodd">
        <g>
            <mask id="mask-2" >
                <use xlink:href="#path-1"></use>
            </mask>
            <use id="Combined-Shape" fill-rule="nonzero" xlink:href="#path-1"></use>
            <g id="color-/-greyscale-/-smoke-/-3" mask="url(#mask-2)" >
                <rect x="0" y="0" width="64" height="64"></rect>
            </g>
        </g>
    </g>
</svg>