<svg xmlns="http://www.w3.org/2000/svg" xmlns:xlink="http://www.w3.org/1999/xlink" width="34" height="48" viewBox="0 0 34 48">
  <defs>
    <path id="mic_icon_48-a" d="M28.7926595,34.5425776 C27.5522682,33.8302514 26.5590562,32.8729928 25.819765,31.673049 C25.0804738,30.4731052 24.7097046,29.15856 24.7097046,27.7294134 L24.7097046,15.8917654 C24.7097046,14.4603717 25.0804738,13.1458265 25.819765,11.9436356 C26.5590562,10.7481859 27.5522682,9.79092739 28.7926595,9.07410702 C30.0285567,8.36178082 31.3925378,8 32.8711203,8 C34.356444,8 35.7159309,8.36178082 36.9563223,9.07410702 C38.1989607,9.79092739 39.1854314,10.7481859 39.9292168,11.9436356 C40.668508,13.1458265 41.0370301,14.4603717 41.0370301,15.8917654 L41.0370301,27.7294134 C41.0370301,29.15856 40.668508,30.4731052 39.9292168,31.673049 C39.1854314,32.8729928 38.1989607,33.8302514 36.9563223,34.5425776 C35.7159309,35.259398 34.356444,35.6189317 32.8711203,35.6189317 C31.3925378,35.6189317 30.0285567,35.259398 28.7926595,34.5425776 L28.7926595,34.5425776 Z M21.9884837,51.3979683 L30.1521464,51.3979683 L30.1521464,43.3309302 C27.520809,42.9219606 25.1321567,42.0096437 22.9839427,40.5917326 C20.8357287,39.1760685 19.1346847,37.355929 17.8830579,35.1358082 C16.6269369,32.9156875 16,30.4438931 16,27.7294134 L16,21.8105894 L20.6222555,21.8105894 L20.6222555,27.7294134 C20.6222555,30.0371705 21.1682974,32.0865128 22.258134,33.8864285 C23.3479706,35.679603 24.8265531,37.0795375 26.7051168,38.0727494 C28.5791864,39.0659613 30.6352699,39.5603202 32.8711203,39.5603202 C35.1114648,39.5603202 37.1653012,39.0659613 39.043865,38.0727494 C40.9179346,37.0795375 42.4010112,35.679603 43.4863536,33.8864285 C44.5761903,32.0865128 45.1222321,30.0371705 45.1222321,27.7294134 L45.1222321,21.8105894 L49.7489818,21.8105894 L49.7489818,27.7294134 C49.7489818,30.416928 49.1220448,32.877487 47.8659239,35.1133374 C46.6098029,37.3469407 44.8997706,39.1760685 42.7380741,40.5917326 C40.5763775,42.0096437 38.1989607,42.9219606 35.5968354,43.3309302 L35.5968354,51.3979683 L43.7604981,51.3979683 L43.7604981,56 L21.9884837,56 L21.9884837,51.3979683 Z"/>
  </defs>
  <use fill-rule="evenodd" transform="translate(-16 -8)" xlink:href="#mic_icon_48-a"/>
</svg>
