<?xml version="1.0" encoding="UTF-8"?>
<svg viewBox="0 0 64 64" version="1.1" xmlns="http://www.w3.org/2000/svg" xmlns:xlink="http://www.w3.org/1999/xlink">
    <defs>
        <path d="M52.8457711,35.8228612 C53.617087,35.0390486 54,34.0976216 54,33 C54,31.8739794 53.617087,30.9268726 52.8457711,30.1558395 C52.0758278,29.3862265 51.1260937,29 50.0020587,29 C48.9027277,29 47.9612283,29.3862265 47.1803054,30.1558395 C46.3938926,30.9268726 46,31.8739794 46,33 C46,34.0976216 46.3938926,35.0390486 47.1803054,35.8228612 C47.9612283,36.6080937 48.9027277,37 50.0020587,37 C51.1260937,37 52.0758278,36.6080937 52.8457711,35.8228612 L52.8457711,35.8228612 Z M51,27 L46.1121784,17.6012488 C42.1409949,16.5346474 37.7704974,16 32.9993139,16 C28.2281304,16 23.8590051,16.5346474 19.8864494,17.6012488 L15,27 L51,27 Z M17.8445969,35.8228612 C18.613036,35.0390486 19,34.0976216 19,33 C19,31.8739794 18.613036,30.9268726 17.8445969,30.1558395 C17.0720412,29.3862265 16.1252144,29 15.0013722,29 C13.9036021,29 12.9622642,29.3862265 12.1759863,30.1558395 C11.3910806,30.9268726 11,31.8739794 11,33 C11,34.0976216 11.3910806,35.0390486 12.1759863,35.8228612 C12.9622642,36.6080937 13.9036021,37 15.0013722,37 C16.1252144,37 17.0720412,36.6080937 17.8445969,35.8228612 L17.8445969,35.8228612 Z M10.5196452,51.6322727 C9.58881861,50.7227273 9.12135506,49.6413636 9.12135506,48.3895455 L9.12135506,43.1395455 C7.70802959,39.2981818 7,35.9709091 7,33.1522727 C7,32.1581818 7.15582118,31.2540909 7.46336299,30.4427273 C7.77363851,29.6327273 8.37095304,28.4 9.25667346,26.75 L14.1732419,17.2331818 C14.7910592,16.0386364 15.2626233,15.2122727 15.5906679,14.7568182 C15.9146119,14.3013636 16.3164666,13.94 16.8057997,13.6686364 C17.2937661,13.3986364 18.1111439,13.0795455 19.2606668,12.7086364 C22.983973,11.5727273 27.394806,11 32.5,11 C37.605194,11 42.0214944,11.5727273 45.7379663,12.7086364 C46.8888561,13.0795455 47.7103345,13.3986364 48.1942003,13.6686364 C48.6835334,13.94 49.0894886,14.3013636 49.4134327,14.7568182 C49.7373767,15.2122727 50.2089408,16.0386364 50.8322256,17.2331818 L55.7433265,26.75 C56.629047,28.4 57.2263615,29.6327273 57.5380039,30.4427273 C57.8496462,31.2540909 58,32.1581818 58,33.1522727 C58,35.9709091 57.296071,39.2981818 55.8772781,43.1395455 L55.8772781,48.3895455 C55.8772781,49.6413636 55.4111814,50.7227273 54.4817217,51.6322727 C53.5508952,52.5431818 52.4232419,53 51.0946612,53 C49.7688143,53 48.641161,52.5431818 47.7103345,51.6322727 C46.7808748,50.7227273 46.3134112,49.6413636 46.3134112,48.3895455 L46.3134112,44.6777273 L18.6865888,44.6777273 L18.6865888,48.3895455 C18.6865888,49.6413636 18.2245926,50.7227273 17.2937661,51.6322727 C16.3643064,52.5431818 15.2352862,53 13.9039719,53 C12.5767581,53 11.4491048,52.5431818 10.5196452,51.6322727 L10.5196452,51.6322727 Z" id="path-1"></path>
    </defs>
    <g id="icon-/-stor-/-bilar" stroke="none" stroke-width="1" fill-rule="evenodd">
        <g>
            <mask id="mask-2">
                <use xlink:href="#path-1"></use>
            </mask>
            <use id="Fill-1" xlink:href="#path-1"></use>
            <g id="color-/-greyscale-/-smoke-/-3" mask="url(#mask-2)" >
                <rect x="0" y="0" width="64" height="64"></rect>
            </g>
        </g>
    </g>
</svg>