<?xml version="1.0" encoding="UTF-8"?>
<svg viewBox="0 0 64 64" version="1.1" xmlns="http://www.w3.org/2000/svg" xmlns:xlink="http://www.w3.org/1999/xlink">
        <g id="icon-/-stor-/-TELEKOM" stroke="none" stroke-width="1" fill-rule="evenodd">
        <g id="icon-/-stor-/-telekom">
            <g id="Group" transform="translate(4.000000, 9.000000)">
                <path d="M18.4635244,4.52840175 L48.3728743,4.40266458 L48.3728743,24.4584343 L31.8995701,24.5275207 L31.8995701,28.1359011 L48.4997611,28.1359011 C50.4790093,28.1359011 52.0881807,26.5418486 52.0881807,24.58302 L52.0881807,4.40266458 C52.0881807,2.44395119 50.478893,0.849783479 48.4997611,0.849783479 L18.4635244,0.849783479 C16.4842762,0.849783479 14.8749886,2.44395119 14.8749886,4.40266458 L14.8749886,10.7187697 L18.5034164,10.7187697 L18.4635244,4.52840175 Z" id="Fill-1"></path>
                <polygon id="Clip-5" points="32.6649578 28.2409434 55.9105502 28.2409434 55.9105502 32.4364805 32.6649578 32.4364805"></polygon>
                <path d="M54.4516526,28.8497835 L32.3749886,28.8497835 L32.3749886,33.0453206 L52.5569741,33.0453206 C54.2488792,33.0453206 55.6206157,31.6859358 55.6206157,30.0082038 C55.6204997,29.3689802 55.0975578,28.8497835 54.4516526,28.8497835" id="Fill-4"></path>
                <path d="M25.9469547,12.6840033 C28.0645829,12.6840033 29.787107,14.4028085 29.7872226,16.5157228 L29.7872226,35.8593761 C29.7872226,37.9722904 28.0646985,39.6910955 25.9470704,39.6910955 L15.8608749,39.6910955 L15.8608749,34.480917 L26.0931097,34.480917 L26.0931097,16.5157228 C26.0931097,16.4354242 26.0282419,16.3697778 25.9469547,16.3697778 L12.9747769,16.3697778 C12.8933742,16.3697778 12.828622,16.4355396 12.828622,16.5157228 L12.828622,22.1405467 C12.3308394,21.9580289 11.8004496,21.8426574 11.2395336,21.8426574 L9.13474033,21.8426574 L9.13474033,16.5157228 C9.13474033,14.4026931 10.8572644,12.6840033 12.9747769,12.6840033 L25.9469547,12.6840033 Z M19.4608658,38.0066711 C19.9280067,38.0066711 20.3231107,37.7322022 20.52338,37.3424772 C20.608136,37.1779574 20.6675693,36.9990161 20.6675693,36.8019615 C20.6675693,36.1367292 20.1265416,35.5979442 19.4608658,35.5979442 C18.7954214,35.5979442 18.2541624,36.1367292 18.2541624,36.8019615 C18.2541624,36.9989007 18.3137113,37.1779574 18.3984673,37.3424772 C18.5987366,37.7322022 18.9938406,38.0066711 19.4608658,38.0066711 Z" id="Combined-Shape"></path>
                <polygon id="Clip-10" points="7.10542736e-14 24.2292706 13.4435812 24.2292706 13.4435812 45.6485423 7.10542736e-14 45.6485423"></polygon>
                <path d="M11.1550734,24.2292706 C12.4171973,24.2292706 13.4436956,25.2588321 13.4435812,26.5236204 L13.4435812,43.3548922 C13.4435812,44.6199098 12.4170828,45.6485538 11.154959,45.6485538 L2.28850775,45.6485538 C1.02638394,45.6485538 6.48370246e-14,44.6199098 6.48370246e-14,43.3548922 L6.48370246e-14,26.5236204 C6.48370246e-14,25.2588321 1.02638394,24.2292706 2.28850775,24.2292706 L11.1550734,24.2292706 Z M2.74190648,41.5265231 L10.7016747,41.5265231 L10.7016747,26.9772146 L2.74190648,26.9772146 L2.74190648,41.5265231 Z M6.72259166,44.5340079 C6.97263613,44.5340079 7.19750451,44.4319349 7.36881644,44.2745818 C7.56164251,44.0973876 7.68672196,43.8487422 7.68672196,43.5652315 C7.68672196,43.0302082 7.25449405,42.5973726 6.72259166,42.5973726 C6.18714172,42.5973726 5.75502825,43.0302082 5.75502825,43.5652315 C5.75502825,43.8487422 5.88010771,44.0975023 6.07453588,44.2745818 C6.24607669,44.4318202 6.47094507,44.5340079 6.72259166,44.5340079 Z" id="Combined-Shape"></path>
            </g>
        </g>
    </g>
</svg>