<svg width="32" height="32" viewBox="0 0 32 32" fill="none" xmlns="http://www.w3.org/2000/svg">
<path d="M24.2589 0.436364L24.8029 2.77818C25.0182 3.70618 25.7455 4.43345 26.6735 4.64873L29.0182 5.19273C29.6 5.32655 29.6 6.15273 29.0182 6.28946L26.6735 6.83346C25.7455 7.04873 25.0182 7.77309 24.8029 8.704L24.2589 11.0458C24.1251 11.6276 23.2989 11.6276 23.1622 11.0458L22.6182 8.704C22.4029 7.776 21.6756 7.04873 20.7476 6.83346L18.4029 6.28946C17.8211 6.15564 17.8211 5.32945 18.4029 5.19273L20.7476 4.64873C21.6756 4.43345 22.4029 3.70909 22.6182 2.77818L23.1622 0.436364C23.296 -0.145455 24.1222 -0.145455 24.2589 0.436364Z" fill="#4F97D6"/>
<path d="M14.5367 5.91711C16.6196 5.91711 18.3069 7.60439 18.3069 9.6873C18.3069 11.7702 16.6196 13.4575 14.5367 13.4575C12.4538 13.4575 10.7666 11.7702 10.7666 9.6873C10.7666 7.60439 12.4538 5.91711 14.5367 5.91711Z" fill="#0061C2"/>
<path d="M3.14183 13.1723C3.40946 12.4596 4.19201 12.1134 4.90183 12.3432L10.2226 14.0596C10.7695 14.2371 11.3396 14.3243 11.9127 14.3243H17.1578C17.7309 14.3243 18.3011 14.2341 18.848 14.0596L24.1687 12.3432C24.8786 12.1134 25.6611 12.4596 25.9287 13.1723C26.1731 13.8152 26.3476 14.368 26.4698 14.7927C26.6647 15.4647 26.3098 16.1396 25.6902 16.4131L19.5142 19.1505L19.2116 30.0043C19.1855 30.9731 18.4727 31.8021 17.4924 31.904C17.1084 31.9447 16.6807 31.9796 16.2531 31.9971C15.7876 32.0145 15.3949 31.6538 15.3716 31.1912L14.9993 24.7447C14.9906 24.5905 14.8626 24.4712 14.7084 24.4712H14.3535C14.1993 24.4712 14.0742 24.5905 14.0655 24.7447L13.6931 31.1912C13.6698 31.6567 13.2771 32.0145 12.8116 31.9971C12.3986 31.9796 11.9855 31.9476 11.5724 31.904C10.592 31.8021 9.87928 30.9731 9.8531 30.0043L9.55346 19.1505L3.37746 16.4101C2.75783 16.1367 2.40292 15.4618 2.59783 14.7898C2.75783 14.2429 2.93819 13.7018 3.13892 13.1694L3.14183 13.1723Z" fill="#0061C2"/>
</svg>
