<svg width="32" height="32" viewBox="0 0 32 32" fill="none" xmlns="http://www.w3.org/2000/svg">
<path d="M16 13C11.2507 13 7.31534 17.0433 6.07734 22.1133C5.528 24.3627 6.366 26.7753 8.43267 27.9187C10.0747 28.828 12.532 29.6667 15.9993 29.6667C19.4673 29.6667 21.9247 28.828 23.5667 27.9187C25.6333 26.7753 26.4713 24.3627 25.922 22.114C24.684 17.0433 20.7487 13 16 13Z" fill="#0061C2"/>
<path d="M4.33333 8.33331C5.24667 8.33331 6.08467 8.67465 6.694 9.30531C7.30467 9.93665 7.66667 10.838 7.66667 11.9253C7.66667 13.0073 7.30933 14.0933 6.72667 14.9153C6.14667 15.7333 5.30667 16.3333 4.33333 16.3333C3.36 16.3333 2.52 15.7333 1.94 14.9153C1.35733 14.0933 1 13.0066 1 11.926C1 10.838 1.362 9.93665 1.972 9.30531C2.582 8.67465 3.42 8.33331 4.33333 8.33331Z" fill="#0061C2"/>
<path d="M11.6667 2.33331C12.58 2.33331 13.418 2.67465 14.0273 3.30531C14.638 3.93665 15 4.83798 15 5.92531C15 7.00731 14.6427 8.09331 14.06 8.91531C13.48 9.73331 12.64 10.3333 11.6667 10.3333C10.6933 10.3333 9.85333 9.73331 9.27333 8.91531C8.69066 8.09331 8.33333 7.00731 8.33333 5.92598C8.33333 4.83798 8.69533 3.93665 9.30599 3.30531C9.91533 2.67465 10.7533 2.33331 11.6667 2.33331Z" fill="#0061C2"/>
<path d="M20.3333 2.33331C19.42 2.33331 18.582 2.67465 17.9727 3.30531C17.362 3.93665 17 4.83798 17 5.92531C17 7.00731 17.3573 8.09331 17.94 8.91531C18.52 9.73331 19.36 10.3333 20.3333 10.3333C21.3067 10.3333 22.1467 9.73331 22.7267 8.91531C23.3093 8.09331 23.6667 7.00731 23.6667 5.92598C23.6667 4.83798 23.3047 3.93665 22.694 3.30531C22.0847 2.67465 21.2467 2.33331 20.3333 2.33331Z" fill="#0061C2"/>
<path d="M27.6667 8.33331C26.7533 8.33331 25.9153 8.67465 25.306 9.30531C24.6953 9.93665 24.3333 10.838 24.3333 11.9253C24.3333 13.0073 24.6907 14.0933 25.2733 14.9153C25.8533 15.7333 26.6933 16.3333 27.6667 16.3333C28.64 16.3333 29.48 15.7333 30.06 14.9153C30.6427 14.0933 31 13.0073 31 11.926C31 10.838 30.638 9.93665 30.0273 9.30531C29.418 8.67465 28.58 8.33331 27.6667 8.33331Z" fill="#0061C2"/>
</svg>
