<svg width="30" height="30" viewBox="0 0 30 30" fill="none" xmlns="http://www.w3.org/2000/svg">
<g id="Group">
<g id="1711464248248-3491754_user-protection-2&#195;&#162;&#194;&#128;&#194;&#148;shield-secure-security-profile-person">
<path id="1711464248248-3491754_Union" d="M15 0C8.47534 0 4.96001 0.471333 3.11801 0.889333C1.54001 1.24667 0.642008 2.57333 0.474674 3.99867C0.144903 6.85171 -0.0131595 9.722 0.00134119 12.594C0.0380079 19.0087 3.43134 25.006 9.14334 28.03C10.166 28.5713 11.204 29.0573 12.1833 29.41C13.1507 29.7587 14.1247 30 15 30C15.8753 30 16.8493 29.7587 17.816 29.41C18.796 29.0573 19.834 28.5713 20.856 28.03C26.5687 25.006 29.962 19.0087 29.9987 12.594L30 12.2C30 8.712 29.7327 5.76 29.5253 3.99867C29.3587 2.574 28.4587 1.24667 26.882 0.889333C25.04 0.471333 21.5247 0 15 0Z" fill="#FCEBD5"/>
<path id="1711464248248-3491754_Subtract" fillRule="evenodd" clipRule="evenodd" d="M20.3333 10.3334C20.3338 11.2362 20.1049 12.1244 19.6681 12.9145C19.2312 13.7047 18.6008 14.3709 17.836 14.8507C19.5991 15.5218 21.0695 16.7923 21.9893 18.4394C22.3033 19.0014 22.2347 19.694 21.842 20.204C20.8703 21.4713 19.6343 22.5118 18.22 23.2534C17.018 23.88 15.8567 24.3334 15 24.3334C14.144 24.3334 12.9813 23.8814 11.7807 23.2534C10.3661 22.5116 9.12991 21.4709 8.15801 20.2034C7.76467 19.6934 7.69601 19.0007 8.01001 18.438C8.93004 16.7915 10.4005 15.5214 12.1633 14.8507C11.3777 14.3573 10.7344 13.6674 10.2969 12.8493C9.8594 12.0312 9.64289 11.1131 9.66874 10.1857C9.69459 9.25832 9.96191 8.35372 10.4443 7.56125C10.9267 6.76877 11.6074 6.11583 12.4193 5.66692C13.2312 5.21801 14.1462 4.98864 15.0738 5.00149C16.0015 5.01433 16.9098 5.26894 17.7089 5.74016C18.5081 6.21138 19.1705 6.88291 19.6308 7.68844C20.091 8.49397 20.3332 9.40562 20.3333 10.3334Z" fill="#F59C00"/>
</g>
</g>
</svg>
