<svg width="28" height="30" viewBox="0 0 28 30" fill="none" xmlns="http://www.w3.org/2000/svg">
<g id="Group">
<g id="1711464248224-919388_file-bookmark--text-common-bookmark">
<path id="1711464248224-919388_Union" d="M14 0C9.45398 0 6.34998 0.236667 4.43065 0.460667C2.50531 0.685333 1.03731 2.14467 0.817313 4.07733C0.58398 6.12867 0.333313 9.59333 0.333313 15C0.333313 20.4067 0.584646 23.8713 0.817313 25.9227C1.03731 27.8553 2.50531 29.3147 4.43065 29.5393C6.35065 29.7633 9.45398 30 14 30C18.546 30 21.65 29.7633 23.5686 29.5393C25.4946 29.3147 26.9626 27.8553 27.182 25.9227C27.4153 23.8713 27.6666 20.4067 27.6666 15C27.6666 12.9753 27.6313 11.2227 27.5746 9.71533C27.571 9.61228 27.5514 9.51042 27.5166 9.41333C27.2106 8.566 26.2766 6.63067 23.568 3.99C20.694 1.18733 18.64 0.336667 17.876 0.0986667C17.7897 0.0718335 17.7003 0.0568079 17.61 0.054C16.5246 0.0206666 15.3233 0 14 0Z" fill="#FCEBD5"/>
<path id="1711464248224-919388_Intersect" d="M27.5533 9.54404C25.8606 9.54271 22.9446 9.51604 21.274 9.35604C19.454 9.18137 18.0233 7.72937 17.8453 5.87004C17.698 4.33204 17.6686 1.76204 17.6666 0.057373C17.738 0.0640397 17.808 0.0773731 17.876 0.0987064C18.64 0.336706 20.694 1.18737 23.568 3.99004C26.276 6.63071 27.2106 8.56604 27.5166 9.41337C27.532 9.45604 27.5433 9.50004 27.5533 9.54404Z" fill="#F59C00"/>
<path id="1711464248224-919388_Intersect_2" d="M11.6666 0.0219727V13.0013C11.6664 13.125 11.6317 13.2462 11.5665 13.3513C11.5013 13.4564 11.4082 13.5414 11.2975 13.5966C11.1868 13.6518 11.0629 13.6751 10.9398 13.6639C10.8166 13.6527 10.6989 13.6075 10.6 13.5333L8.66663 12.0833L6.73329 13.5333C6.63425 13.6076 6.51647 13.6528 6.39316 13.6639C6.26986 13.6751 6.14589 13.6516 6.03515 13.5963C5.92441 13.5409 5.83128 13.4558 5.76619 13.3505C5.7011 13.2451 5.66663 13.1238 5.66663 13V0.333306C7.15996 0.195306 9.13996 0.071306 11.6666 0.0226394V0.0219727Z" fill="#F59C00"/>
</g>
</g>
</svg>
