<svg xmlns="http://www.w3.org/2000/svg" width="30" height="30" fill="none"><path fill="#0061C2" d="M15 30c-5.088 0-8.632-.323-10.765-.607A4.219 4.219 0 0 1 .583 25.78C.305 23.84 0 20.776 0 16.667c0-4.11.305-7.174.583-9.114a4.217 4.217 0 0 1 3.653-3.612C6.367 3.657 9.911 3.333 15 3.333c5.088 0 8.632.324 10.765.608a4.218 4.218 0 0 1 3.652 3.612c.278 1.94.583 5.004.583 9.114 0 4.109-.305 7.173-.583 9.113a4.219 4.219 0 0 1-3.653 3.613C23.632 29.677 20.088 30 15 30Z"/><path fill="#194389" d="M21.333 8.679c-.336 0-.631-.01-.89-.025-1.514-.089-2.365-1.335-2.412-2.612a46.278 46.278 0 0 1 0-3.394c.046-1.277.898-2.523 2.412-2.612.259-.015.554-.024.89-.024.336 0 .632.009.891.024 1.513.089 2.365 1.335 2.412 2.612a46.278 46.278 0 0 1 0 3.394c-.047 1.277-.899 2.523-2.412 2.612-.297.017-.594.025-.89.025ZM8.667 8.679a15.1 15.1 0 0 1-.891-.025c-1.513-.089-2.365-1.335-2.412-2.612a46.177 46.177 0 0 1 0-3.394C5.411 1.371 6.263.125 7.776.036c.26-.015.555-.024.89-.024.337 0 .632.009.891.024 1.514.089 2.365 1.335 2.412 2.612a46.278 46.278 0 0 1 0 3.394c-.046 1.277-.898 2.523-2.412 2.612-.296.017-.593.025-.89.025Z"/><path fill="#EFF8FD" fillRule="evenodd" d="M10.406 12.333H9.239a3.473 3.473 0 0 0-3.341 2.526 1.333 1.333 0 1 0 2.566.726.807.807 0 0 1 .775-.585h1.167a.806.806 0 0 1 0 1.611h-.583a1.334 1.334 0 0 0 0 2.667h.777a1 1 0 0 1 1 1v.389a1 1 0 0 1-1 1H9.045A1 1 0 0 1 8.1 21a1.334 1.334 0 1 0-2.514.889 3.667 3.667 0 0 0 3.458 2.444H10.6a3.667 3.667 0 0 0 3.667-3.666v-.389a3.654 3.654 0 0 0-.995-2.512 3.473 3.473 0 0 0-2.867-5.433h.001Z" clipRule="evenodd"/><path fill="#EFF8FD" d="M20.711 12.333a1.333 1.333 0 0 1 1.334 1.334v8h1.778a1.334 1.334 0 0 1 0 2.666H17.6a1.333 1.333 0 1 1 0-2.666h1.778v-4.472a3.671 3.671 0 0 1-1 .138H17.6a1.333 1.333 0 1 1 0-2.666h.778a1 1 0 0 0 1-1 1.333 1.333 0 0 1 1.333-1.334Z"/></svg>
