<svg xmlns="http://www.w3.org/2000/svg" width="30" height="23" fill="none"><path fill="#0061C2" d="M1.561 8.747a5.278 5.278 0 0 0 0 5.84C3.715 17.835 6.3 20.27 7.8 21.548c.968.825 2.172 1.239 3.391 1.288 1.702.07 4.607.164 7.81.164 2.295 0 4.51-.049 6.243-.101 2.506-.077 4.538-2.035 4.637-4.564.065-1.662.12-3.896.12-6.668.003-2.224-.037-4.447-.12-6.668-.099-2.53-2.13-4.488-4.637-4.564A207.15 207.15 0 0 0 19 .333c-3.203 0-6.108.095-7.81.164-1.22.05-2.423.463-3.391 1.288-1.5 1.276-4.084 3.713-6.238 6.962Z"/><path fill="#EFF8FD" d="M24.095 7.669c.4.522.273 1.201-.174 1.684-.496.534-1.298 1.38-2.542 2.645a124.364 124.364 0 0 1 2.546 2.65c.446.483.573 1.161.174 1.684-.168.22-.387.474-.67.758a7.777 7.777 0 0 1-.758.67c-.523.4-1.202.273-1.684-.174-.536-.496-1.383-1.3-2.65-2.546-.87.861-1.753 1.71-2.649 2.545-.483.446-1.16.573-1.684.174a7.617 7.617 0 0 1-.758-.67 7.627 7.627 0 0 1-.67-.758c-.4-.523-.273-1.202.174-1.684.496-.536 1.3-1.382 2.545-2.649a124.09 124.09 0 0 1-2.54-2.645c-.448-.482-.574-1.161-.175-1.684.168-.22.387-.474.67-.758.284-.283.539-.502.758-.67.523-.399 1.201-.273 1.684.174.535.496 1.38 1.298 2.645 2.542.87-.86 1.752-1.709 2.646-2.543.482-.447 1.161-.573 1.684-.173.22.167.474.386.758.67.284.283.502.538.67.758Z"/></svg>