<svg xmlns="http://www.w3.org/2000/svg" width="31" height="31" fill="none"><path fill="#4F97D6" d="m14.324 21 .205-2.944 3.608-.49c1.382-.188 2.744-1.21 3.045-2.859.227-1.237.173-2.229.008-2.987-.389-1.777-1.97-2.43-3.03-2.49-1.817-.103-3.636-.171-5.456-.204a6.303 6.303 0 0 0 .963-3.36A6.328 6.328 0 0 0 10.796.364C12.064.344 13.463.333 15 .333c5.713 0 9.532.152 11.733.279 1.831.105 3.376 1.425 3.596 3.32.174 1.487.338 3.7.338 6.735s-.164 5.247-.338 6.734c-.22 1.896-1.765 3.215-3.596 3.32-2.2.128-6.02.279-11.733.279h-.676Z"/><g fill="#0061C2"><path d="M3 5.667a4.333 4.333 0 1 0 8.667 0 4.333 4.333 0 0 0-8.667 0ZM3.337 11.153c4.65-.226 9.916-.202 14.708.074.511.028 1.059.32 1.191.92.106.484.16 1.207-.021 2.2-.125.682-.7 1.149-1.347 1.237l-4.952.673a.333.333 0 0 0-.288.307l-.853 12.24c-.075 1.062-.864 1.956-1.949 2.066-.212.021-.44.042-.681.06a.988.988 0 0 1-1.056-.95l-.231-5.993a.333.333 0 0 0-.333-.32H7.14a.334.334 0 0 0-.333.32l-.23 5.983a.986.986 0 0 1-1.062.95 26.94 26.94 0 0 1-.628-.059c-1.11-.116-1.907-1.05-1.947-2.14l-.252-6.766a.345.345 0 0 0-.322-.328 19.184 19.184 0 0 1-1.125-.116c-.759-.103-1.248-.76-1.229-1.492.07-2.596.398-4.974.668-6.548.227-1.312 1.338-2.253 2.656-2.318Z"/></g></svg>