<svg xmlns="http://www.w3.org/2000/svg" width="24" height="24" fill="none"><path fill="#0061C2" d="M14.944 1.12c-1.832-.104-4.956-.213-8.036.012a2.638 2.638 0 0 0-2.272 1.694c-1.554 4.082-2.294 7.847-2.609 9.842a2.118 2.118 0 0 0 1.963 2.453c1.069.074 2.64.15 4.473.14-.195 1.587-.399 3.704-.601 5.98-.181 2.04 2.272 3.267 3.732 1.703 3.748-4.017 7.185-8.483 9.069-11.029 1.037-1.4.124-3.359-1.646-3.405a86.575 86.575 0 0 0-2.995-.023c.348-1.52.663-3.17.953-4.763.234-1.293-.692-2.526-2.032-2.603Z"/></svg>