<svg xmlns="http://www.w3.org/2000/svg" width="30" height="31" fill="none"><path fill="#0061C2" d="M15 0C10.065 0 6.605.16 4.429.31 2.252.464.52 2.107.327 4.307.161 6.196 0 9.049 0 13c0 3.95.161 6.804.327 8.694.194 2.2 1.925 3.843 4.102 3.995.944.066 2.129.134 3.571.188v3.007c0 1.424 1.67 2.192 2.751 1.265L15.593 26c4.62-.012 7.89-.164 9.978-.31 2.177-.152 3.908-1.795 4.102-3.995.166-1.89.327-4.743.327-8.694 0-3.95-.161-6.804-.327-8.694-.194-2.2-1.925-3.843-4.102-3.995C23.395.16 19.935 0 15 0Z"/><path fill="#EFF8FD" fillRule="evenodd" d="M17.772 7.986c.543-.8 1.627-1.26 2.533-.649.434.29.817.648 1.134 1.063.493.656.356 1.507-.027 2.115-2.187 3.472-3.878 5.838-5.011 7.326-1.005 1.318-2.87 1.419-4.018.226a54.671 54.671 0 0 1-3.586-4.13c-.524-.668-.667-1.642-.095-2.37.212-.268.441-.521.687-.758.846-.82 2.126-.614 2.86.208a67.42 67.42 0 0 1 1.956 2.299l.013-.02a481.05 481.05 0 0 1 3.554-5.31Z" clipRule="evenodd"/></svg>
