<svg xmlns="http://www.w3.org/2000/svg" width="30" height="30" fill="none"><path fill="#0061C2" d="M15 0c4.944 0 8.406.152 10.583.297 2.17.145 3.91 1.772 4.108 3.972.163 1.808.318 4.499.318 8.192 0 3.694-.155 6.384-.318 8.192-.198 2.201-1.938 3.828-4.108 3.972-1.004.067-2.28.136-3.848.19v2.798c0 2.014-2.38 3.082-3.885 1.742l-4.99-4.442c-3.82-.036-6.594-.164-8.442-.288-2.17-.144-3.91-1.771-4.109-3.972-.162-1.808-.317-4.498-.317-8.192 0-3.693.155-6.384.317-8.192C.507 2.07 2.248.442 4.418.297 6.595.152 10.057 0 15.001 0Z"/><path fill="#EFF8FD" fillRule="evenodd" d="M14.49 17.222a1.721 1.721 0 1 0 0 3.442 1.721 1.721 0 0 0 0-3.442Zm-3.413-10.09c.18-.715.762-1.499 1.72-2.118C13.74 4.402 14.979 4 16.33 4c1.64 0 2.715.577 3.393 1.357.697.804 1.051 1.916 1.051 3.088 0 1.19-.427 2.014-1.177 2.743-.803.779-1.951 1.429-3.405 2.209a1 1 0 0 0-.527.881v.277a.667.667 0 0 1-.666.667h-1.415a.668.668 0 0 1-.667-.667l.004-2.014c0-.45.344-.994 1.209-1.639.653-.487 1.41-.894 2.117-1.275.194-.104.384-.206.566-.308a1 1 0 0 0-.935-1.766c-.877.444-1.978 1.086-2.613 1.463-.318.189-.531.267-.698.276-.603.033-1.018-.205-1.266-.547-.258-.356-.397-.919-.223-1.613Z" clipRule="evenodd"/></svg>
