<svg width="32" height="32" viewBox="0 0 32 32" fill="none" xmlns="http://www.w3.org/2000/svg">
<path d="M9.36393 14.988C9.3906 15.626 9.55527 16.5107 10.1699 17.17C10.3666 17.3807 10.6566 17.4667 10.9446 17.4667H15.8479L17.2953 28.942C17.3986 29.7607 17.9953 30.4287 18.8153 30.5287C19.4246 30.6027 20.2153 30.6667 21.1333 30.6667C22.0233 30.6667 22.7933 30.6067 23.3939 30.5353C24.2413 30.4347 24.8499 29.7293 24.9239 28.8793L25.5113 22.128C26.2501 22.0918 26.9859 22.0099 27.7146 21.8827C28.2873 21.7793 28.6693 21.2713 28.6519 20.6893C28.5653 17.854 28.1266 15.1747 27.7853 13.4693C27.5613 12.346 26.5966 11.5467 25.4533 11.474C23.1579 11.3273 21.2546 11.234 18.9333 11.234L10.1879 13.9247C9.70527 14.0727 9.3426 14.4833 9.36393 14.988Z" fill="#F59C00"/>
<path d="M21.1333 10.1333C22.3002 10.1333 23.4194 9.66977 24.2445 8.84461C25.0697 8.01945 25.5333 6.9003 25.5333 5.73334C25.5333 4.56639 25.0697 3.44723 24.2445 2.62207C23.4194 1.79691 22.3002 1.33334 21.1333 1.33334C19.9663 1.33334 18.8472 1.79691 18.022 2.62207C17.1968 3.44723 16.7333 4.56639 16.7333 5.73334C16.7333 6.9003 17.1968 8.01945 18.022 8.84461C18.8472 9.66977 19.9663 10.1333 21.1333 10.1333Z" fill="#F59C00"/>
<path d="M13.1633 30.5307C12.5566 30.604 11.7746 30.6667 10.8666 30.6667C9.9773 30.6667 9.2073 30.6067 8.60663 30.5353C7.75863 30.4347 7.15063 29.7293 7.07663 28.8793L6.48863 22.128C5.75005 22.0918 5.01441 22.0099 4.28597 21.8827C3.71263 21.7793 3.33063 21.2713 3.34863 20.6893C3.43663 17.806 3.88863 15.0833 4.23197 13.3827C4.33639 12.8595 4.61107 12.3855 5.01315 12.0348C5.41523 11.6841 5.92208 11.4764 6.45463 11.444C9.68663 11.2333 14.0566 11.2333 18.9333 11.2333C18.9333 11.2333 16.5693 13.0667 16.3666 13.8C16.164 14.5333 15.96 17.4667 15.96 17.4667L14.6866 28.918C14.5946 29.7487 13.9933 30.43 13.1633 30.5307Z" fill="#FCEBD5"/>
<path d="M10.8667 10.1333C9.69972 10.1333 8.58056 9.66977 7.7554 8.84461C6.93024 8.01945 6.46667 6.9003 6.46667 5.73334C6.46667 4.56639 6.93024 3.44723 7.7554 2.62207C8.58056 1.79691 9.69972 1.33334 10.8667 1.33334C12.0336 1.33334 13.1528 1.79691 13.9779 2.62207C14.8031 3.44723 15.2667 4.56639 15.2667 5.73334C15.2667 6.9003 14.8031 8.01945 13.9779 8.84461C13.1528 9.66977 12.0336 10.1333 10.8667 10.1333Z" fill="#FCEBD5"/>
</svg>
