<svg xmlns="http://www.w3.org/2000/svg" width="19" height="22" fill="none"><path fill="#0061C2" d="M18.089 11c0-4.121-.135-6.634-.265-8.1-.128-1.428-1.195-2.513-2.626-2.655C13.947.121 11.974 0 9.044 0 6.115 0 4.143.121 2.89.245 1.46.387.393 1.472.266 2.9.136 4.366 0 6.879 0 11c0 4.121.135 6.634.266 8.1.127 1.428 1.194 2.513 2.625 2.655 1.251.124 3.224.245 6.153.245 2.93 0 4.902-.121 6.154-.245 1.43-.142 2.498-1.227 2.625-2.655.131-1.466.266-3.979.266-8.1Z"/><path fill="#B9E1F6" d="M4.644 13.933a.978.978 0 0 0-.977.978v1.956a.978.978 0 0 0 1.955 0V14.91a.978.978 0 0 0-.978-.978ZM4.644 4.156a.978.978 0 0 0-.977.977V7.09a.978.978 0 1 0 1.955 0V5.133a.978.978 0 0 0-.978-.977ZM18.087 10.267c.002.489.002.978 0 1.466H.001v-1.466h18.086Z"/></svg>