<svg xmlns="http://www.w3.org/2000/svg" width="19" height="23" fill="none"><path fill="#0061C2" fillRule="evenodd" d="M7.372 13.133a.75.75 0 0 1 .741-.633h2a.75.75 0 0 1 .741.633l.905 5.711a.25.25 0 0 0 .168.198l2.999.996a1.37 1.37 0 0 1 .937 1.3 1.163 1.163 0 0 1-1.162 1.162H3.547a1.182 1.182 0 0 1-1.184-1.183 1.4 1.4 0 0 1 .974-1.334l2.961-.947a.25.25 0 0 0 .17-.199l.904-5.704Z" clipRule="evenodd"/><path fill="#4F97D6" d="M9.113 0c-1.805 0-3.429.087-4.45.159-.957.067-1.822.652-2.177 1.588C1.865 3.382.749 6.894.018 12.524c-.139 1.07.527 2.122 1.646 2.345 1.376.274 3.86.631 7.45.631 3.621 0 6.117-.364 7.485-.639 1.094-.22 1.757-1.236 1.647-2.287-.603-5.752-1.824-9.31-2.501-10.925C15.373.764 14.537.228 13.628.163A65.609 65.609 0 0 0 9.113 0Z"/></svg>
