<svg xmlns="http://www.w3.org/2000/svg" width="30" height="30" fill="none"><path fill="#0061C2" fillRule="evenodd" d="M23.92 3.887a1.334 1.334 0 0 0-2.513 0l-.048.138-.137.39c-.698 1.991-1.38 3.989-2.043 5.992-1.147 3.472-2.43 7.564-2.826 9.682a1.334 1.334 0 0 0 2.622.489c.355-1.903 1.572-5.81 2.736-9.333.334-1.008.659-1.974.954-2.839.293.865.619 1.83.952 2.838 1.165 3.523 2.382 7.43 2.736 9.333a1.336 1.336 0 0 0 1.558 1.082 1.333 1.333 0 0 0 1.064-1.57c-.395-2.118-1.678-6.21-2.826-9.682a359.505 359.505 0 0 0-2.18-6.382l-.048-.138ZM8.588 7.221a1.333 1.333 0 0 0-2.513 0l-.048.138-.137.389a358.978 358.978 0 0 0-2.042 5.992c-1.148 3.472-2.432 7.565-2.827 9.682a1.334 1.334 0 0 0 2.622.49c.355-1.904 1.571-5.811 2.736-9.334.333-1.008.659-1.974.953-2.839.294.865.62 1.831.953 2.838 1.165 3.524 2.381 7.431 2.736 9.334a1.336 1.336 0 0 0 1.558 1.081 1.332 1.332 0 0 0 1.063-1.57c-.394-2.117-1.678-6.21-2.825-9.681a359.766 359.766 0 0 0-2.18-6.382l-.049-.138Z" clipRule="evenodd"/><path fill="#4F97D6" d="M7.333 21.333c2.389 0 4.216.14 5.315.256 1.131.12 2.139 1.135 1.9 2.442C13.926 27.432 10.928 30 7.333 30 3.737 30 .739 27.432.117 24.03c-.239-1.306.769-2.321 1.9-2.44a51.523 51.523 0 0 1 5.316-.257ZM22.666 18c2.39 0 4.217.14 5.315.256 1.132.12 2.139 1.135 1.9 2.441-.622 3.402-3.62 5.97-7.215 5.97-3.595 0-6.593-2.568-7.215-5.97-.24-1.306.768-2.322 1.9-2.441A51.523 51.523 0 0 1 22.666 18Z"/><path fill="#4F97D6" fillRule="evenodd" d="M13.331 1.667a1.667 1.667 0 1 1 3.334 0v1.936c5.246-1.158 7.813-1.682 8.84-1.884.277-.055.634-.078.996.023a1.565 1.565 0 0 1 1.013.848c.083.176.15.375.2.6.05.223.073.433.073.626 0 .528-.253.935-.558 1.199a2.16 2.16 0 0 1-.892.444c-1.14.283-4.216 1.025-10.877 2.509-6.66 1.483-9.761 2.117-10.913 2.345a2.171 2.171 0 0 1-.997-.024 1.565 1.565 0 0 1-1.013-.848 2.897 2.897 0 0 1-.2-.599 2.896 2.896 0 0 1-.074-.627 1.567 1.567 0 0 1 .558-1.198c.284-.245.617-.376.892-.444 1.066-.265 3.824-.931 9.618-2.228V1.667Z" clipRule="evenodd"/></svg>
