<svg xmlns="http://www.w3.org/2000/svg" width="21" height="22" fill="none"><path fill="#0061C2" fillRule="evenodd" d="M13.67 15.107c-1.558 0-2.82-.052-3.741-.11-1.399-.088-2.413-1.257-2.413-2.614V5.522c0-1.356 1.014-2.526 2.413-2.613.92-.058 2.183-.11 3.741-.11 1.637 0 2.89.057 3.764.118a2.433 2.433 0 0 1 2.272 2.272c.061.873.119 2.127.119 3.764 0 1.636-.058 2.89-.12 3.763a2.433 2.433 0 0 1-2.271 2.272c-.873.062-2.127.12-3.764.12Z" clipRule="evenodd"/><path fill="#0061C2" d="M.13 18.553a3.446 3.446 0 1 0 6.893 0 3.446 3.446 0 0 0-6.892 0Z"/><path fill="#B9E1F6" fillRule="evenodd" d="M17.855 12.4a.739.739 0 0 1-.738.738h-2.954a.738.738 0 1 1 0-1.477h2.954a.738.738 0 0 1 .738.738Zm-.738-2.216a.738.738 0 1 0 0-1.477h-1.97a.738.738 0 1 0 0 1.477h1.97Z" clipRule="evenodd"/><path fill="#0061C2" fillRule="evenodd" d="M.631.149c.297-.147.656-.183.99-.119l2.217.423a2.708 2.708 0 0 1 2.2 2.66v13.029a3.436 3.436 0 0 0-2.953-1V3.25l-1.898-.344c-.435-.08-.908-.334-1.069-.83A2.448 2.448 0 0 1 .028.947c.06-.383.301-.65.603-.8Zm6.25 19.39h9.994l1.227 1.639c.372.497 1.067.851 1.71.524.517-.265.786-.627.922-.93.177-.4.014-.804-.183-1.081l-1.246-1.758a3.2 3.2 0 0 0-2.61-1.349H6.406a3.43 3.43 0 0 1 .618 1.97c0 .342-.05.673-.143.984Z" clipRule="evenodd"/></svg>
