<svg xmlns="http://www.w3.org/2000/svg" width="31" height="31" fill="none"><path fill="#0061C2" d="M6.513.975a74.855 74.855 0 0 0-3.411.994C.983 2.647-.225 4.74.248 6.913c.2.919.472 2.064.844 3.452a74.62 74.62 0 0 0 .995 3.41c.677 2.119 2.77 3.327 4.944 2.855.918-.2 2.064-.473 3.451-.845a74.565 74.565 0 0 0 3.41-.994c2.12-.678 3.327-2.77 2.855-4.944-.2-.918-.473-2.064-.844-3.451a74.82 74.82 0 0 0-.994-3.411C14.23.867 12.138-.342 9.965.13 9.046.33 7.9.603 6.513.975Z"/><path fill="#0061C2" fillRule="evenodd" d="M23.182 30.082c-.919-.2-2.065-.473-3.451-.845a74.69 74.69 0 0 1-3.412-.994c-2.118-.678-3.326-2.77-2.854-4.944.2-.918.473-2.064.844-3.451.372-1.387.708-2.516.995-3.411.678-2.119 2.77-3.327 4.944-2.855.919.2 2.064.473 3.451.845 1.387.371 2.516.708 3.411.994 2.119.678 3.327 2.77 2.855 4.944-.2.919-.474 2.064-.845 3.452a74.524 74.524 0 0 1-.994 3.41c-.678 2.119-2.77 3.327-4.944 2.855Z" clipRule="evenodd"/><path fill="#B9E1F6" fillRule="evenodd" d="M9.053 10.128A1.834 1.834 0 1 0 7.94 6.632a1.834 1.834 0 0 0 1.114 3.496ZM18.586 25.133a1.834 1.834 0 1 0 .95-3.542 1.834 1.834 0 0 0-.95 3.542Z" clipRule="evenodd"/><path fill="#B9E1F6" d="M22.597 19.824a1.832 1.832 0 1 1 3.542.95 1.833 1.833 0 1 1-3.542-.95Z"/></svg>
