<svg xmlns="http://www.w3.org/2000/svg" width="22" height="22" fill="none"><path fill="#4F97D6" d="M10.84.057A63.51 63.51 0 0 0 8.068 0c-2.211 0-3.864.099-5.02.21C1.437.364.283 1.658.191 3.23.098 4.82 0 7.363 0 11c0 3.637.098 6.18.191 7.77.092 1.572 1.246 2.866 2.856 3.02 1.156.111 2.809.21 5.02.21 2.21 0 3.863-.1 5.02-.21 1.61-.154 2.763-1.448 2.855-3.02.073-1.248.15-3.082.179-5.57a7.31 7.31 0 0 1-3.043-.665c-.483.152-.994.298-1.496.42-1.513.369-2.915-.95-2.578-2.506a18.29 18.29 0 0 1 .428-1.602 7.313 7.313 0 0 1-.632-2.98c0-1.915.733-3.657 1.935-4.963l.106-.846Z"/><path fill="#0061C2" fillRule="evenodd" d="M6.356 19.311a.733.733 0 0 1 .733-.733h1.955a.733.733 0 1 1 0 1.466H7.09a.733.733 0 0 1-.733-.733Z" clipRule="evenodd"/><path fill="#0061C2" d="M9.54 2.653a1.47 1.47 0 0 1-.323.036h-2.3a1.467 1.467 0 0 1-1.455-1.285L5.294.057A63.505 63.505 0 0 1 8.067 0c1.048 0 1.97.022 2.774.057l-.106.846a7.347 7.347 0 0 0-1.195 1.75Z"/><path fill="#0061C2" fillRule="evenodd" d="M16.133 0a5.867 5.867 0 1 1-2.93 10.95c-.647.222-1.304.416-1.968.58a.648.648 0 0 1-.797-.771c.15-.694.359-1.406.577-2.023A5.867 5.867 0 0 1 16.134 0Z" clipRule="evenodd"/><path fill="#92D2F4" fillRule="evenodd" d="M13.066 5.133a.733.733 0 1 0 0 1.467h.267a.733.733 0 1 0 0-1.467h-.267Zm2.2.734A.733.733 0 0 1 16 5.133h.266a.734.734 0 0 1 0 1.467H16a.734.734 0 0 1-.733-.733Zm3.667-.734a.733.733 0 1 0 0 1.467h.267a.733.733 0 0 0 0-1.467h-.267Z" clipRule="evenodd"/></svg>
