<svg xmlns="http://www.w3.org/2000/svg" width="24" height="24" fill="none"><g fillRule="evenodd" clipRule="evenodd"><path fill="#0061C2" d="M10.649 1.106a2.792 2.792 0 0 1 2.7 0c1.063.58 2.858 1.775 5.388 4.19 1.894 1.81 3.151 3.156 3.964 4.094.498.576.64 1.317.37 1.965-.27.646-.894 1.069-1.649 1.128-.205.016-.429.032-.672.048V16c0 2.236-.1 3.828-.2 4.858-.119 1.222-1.09 2.125-2.29 2.209-1.23.086-3.273.183-6.26.183-2.987 0-5.03-.097-6.26-.183-1.2-.085-2.171-.987-2.29-2.21-.1-1.029-.2-2.62-.2-4.857v-3.47c-.225-.014-.45-.03-.676-.048-.755-.058-1.38-.48-1.648-1.127-.27-.647-.129-1.389.37-1.964.812-.939 2.07-2.285 3.964-4.094 2.53-2.415 4.325-3.612 5.389-4.191Z"/><path fill="#B9E1F6" d="M14.371 21.046a.987.987 0 0 0 .966-.995c-.006-1.038-.021-2.28-.034-3.253-.014-.955-.703-1.766-1.654-1.853A18.315 18.315 0 0 0 12 14.864c-.579 0-1.15.035-1.65.08-.95.088-1.64.899-1.652 1.854-.013.973-.028 2.215-.035 3.253a.987.987 0 0 0 .966.995 115.666 115.666 0 0 0 4.743 0Z"/></g></svg>
