<svg xmlns="http://www.w3.org/2000/svg" width="29" height="31" fill="none"><path fill="#0061C2" d="m4.333 6.963-.921-1.036a2.333 2.333 0 0 1-.493-2.214l.648-2.186A1.667 1.667 0 0 1 5.165.333h1.67a1.667 1.667 0 0 1 1.598 1.194l.648 2.186a2.333 2.333 0 0 1-.493 2.214l-.921 1.036V16a1.667 1.667 0 1 1-3.334 0V6.963Z"/><path fill="#4F97D6" d="M6 15c-.988 0-1.773.02-2.39.048-1.6.073-2.827 1.275-3.005 2.833a42.877 42.877 0 0 0-.272 4.786c0 1.922.137 3.599.272 4.785.178 1.558 1.406 2.76 3.005 2.833.616.028 1.403.048 2.39.048.988 0 1.773-.02 2.39-.048 1.6-.072 2.827-1.275 3.005-2.833.18-1.589.27-3.186.272-4.785 0-1.923-.138-3.6-.272-4.786-.178-1.558-1.406-2.76-3.005-2.833A53.202 53.202 0 0 0 6 15Z"/><path fill="#0061C2" d="M18.341 2.08C18.352.979 17.208.008 16.031.588a9.003 9.003 0 0 0-.311 15.998c.065 2.856.205 6.954.515 11.172.086 1.179.91 2.322 2.262 2.487.422.052.928.09 1.503.09.576 0 1.08-.038 1.504-.09 1.351-.165 2.175-1.308 2.261-2.487.31-4.218.45-8.316.515-11.171A8.998 8.998 0 0 0 29 8.666 8.999 8.999 0 0 0 23.977.592c-1.164-.574-2.31.372-2.31 1.474V7.27c-.32.29-.892.737-1.609 1.009-.739-.28-1.323-.747-1.636-1.035-.088-1.429-.1-3.367-.08-5.163Z"/></svg>