<svg xmlns="http://www.w3.org/2000/svg" width="31" height="30" fill="none"><path fill="#0061C2" d="M23.883 7.555c-1.455-.654-3.27-1.784-5.202-2.99l-.008-.006c-1.784-1.113-3.659-2.282-5.396-3.155C11.551.537 9.9-.071 8.577.007c-2.45.145-4.322 1.85-5.445 3.213-.932 1.133-.384 2.709.887 3.264 2.24.973 4.504 1.891 6.79 2.753.2.602.402 1.176.6 1.715 1.46.471 2.52 1.597 3.04 2.858.053.132.111.276.17.429.31.03.591.064.846.097a4.95 4.95 0 0 1 2.575 1.13 79.98 79.98 0 0 0-.539-3.821c2.403.822 4.82 1.606 7.247 2.353a2.268 2.268 0 0 0 2.573-.912 49.506 49.506 0 0 0 3.176-5.565c.36-.742.145-1.7-.647-2.092a7.59 7.59 0 0 0-1.403-.531 1.457 1.457 0 0 0-1.162.198c-.85.548-1.68 1.13-2.484 1.743-.309.235-.615.473-.918.716Z"/><path fill="#4F97D6" fillRule="evenodd" d="m5.328 16.093.166-.828c.253-1.262 1.223-2.466 2.737-2.572a10.986 10.986 0 0 1 1.538 0c1.514.106 2.485 1.31 2.738 2.572l.165.828c1.07.06 1.901.144 2.533.226 1.454.19 2.473 1.345 2.611 2.744.094.956.184 2.298.184 3.937 0 1.639-.09 2.98-.184 3.937-.138 1.399-1.157 2.553-2.611 2.744C13.983 29.84 12.013 30 9 30s-4.983-.16-6.205-.32C1.341 29.49.322 28.337.184 26.938A40.454 40.454 0 0 1 0 23c0-1.639.09-2.98.184-3.937.138-1.4 1.157-2.553 2.611-2.744a34.54 34.54 0 0 1 2.534-.225h-.001Zm3.043-1.405c.42-.03.84-.03 1.258 0 .396.028.794.355.916.97l.072.359a77.108 77.108 0 0 0-3.234 0l.072-.36c.123-.614.52-.941.916-.968v-.001Z" clipRule="evenodd"/><g fill="#0061C2"><path d="m5.333 16.068-.005.025c-.666.036-1.331.09-1.995.161v13.491c.547.06 1.208.117 2 .161V16.068ZM12.667 16.067v13.84c.668-.036 1.335-.09 2-.162V16.253a37.915 37.915 0 0 0-1.995-.16l-.005-.026Z"/></g></svg>
