<svg xmlns="http://www.w3.org/2000/svg" width="32" height="29" fill="none"><path fill="#0061C2" d="M19.193 2.297c-1.668-2.174-4.718-2.174-6.386 0-1.643 2.142-4.01 5.604-6.853 10.84-2.63 4.844-4.028 8.182-4.77 10.373-.414 1.22-.216 2.431.456 3.366.664.923 1.74 1.51 2.976 1.627 2.552.24 6.44.497 11.384.497 4.943 0 8.832-.257 11.384-.497 1.235-.116 2.312-.704 2.976-1.627.672-.935.87-2.145.457-3.365-.743-2.192-2.14-5.53-4.771-10.374-2.843-5.236-5.21-8.698-6.853-10.84Z"/><path fill="#EFF8FD" d="M13.438 10.773c-.07-.9.35-1.776 1.232-1.97.437-.093.883-.139 1.33-.136.447-.003.893.043 1.33.137.881.193 1.3 1.07 1.232 1.97-.128 1.668-.358 4.393-.608 5.989-.092.59-.46 1.087-1.052 1.176A6.09 6.09 0 0 1 16 18a6.088 6.088 0 0 1-.902-.06c-.592-.09-.96-.586-1.052-1.176-.25-1.597-.48-4.32-.608-5.99ZM13.667 22.333a2.333 2.333 0 1 0 4.666 0 2.333 2.333 0 0 0-4.666 0Z"/></svg>