<svg width="32" height="32" viewBox="0 0 32 32" fill="none" xmlns="http://www.w3.org/2000/svg">
<path d="M16 31C11.066 31 7.60467 30.8147 5.424 30.6373C3.232 30.4593 1.54067 28.768 1.36267 26.576C1.18533 24.3953 1 20.934 1 16C1 11.066 1.18533 7.60467 1.36267 5.424C1.54067 3.232 3.232 1.54067 5.424 1.36267C7.60467 1.18533 11.066 1 16 1C20.934 1 24.3953 1.18533 26.576 1.36267C28.768 1.54067 30.4593 3.232 30.6373 5.424C30.8147 7.60467 31 11.066 31 16C31 20.934 30.8147 24.3953 30.6373 26.576C30.4593 28.768 28.768 30.4593 26.576 30.6373C24.3953 30.8147 20.934 31 16 31Z" fill="#FCEBD5"/>
<path d="M30.8413 8.66667H1.15796C1.21929 7.37333 1.29129 6.296 1.36263 5.424C1.54063 3.232 3.23129 1.54067 5.42329 1.36267C7.60463 1.18533 11.0653 1 16 1C20.934 1 24.3946 1.18533 26.576 1.36267C28.768 1.54067 30.4593 3.232 30.6373 5.424C30.708 6.296 30.78 7.37267 30.8413 8.66667Z" fill="#F59C00"/>
<path fillRule="evenodd" clipRule="evenodd" d="M5.33337 5C5.33337 4.73478 5.43873 4.48043 5.62627 4.29289C5.8138 4.10536 6.06816 4 6.33337 4H7.66671C7.93192 4 8.18628 4.10536 8.37381 4.29289C8.56135 4.48043 8.66671 4.73478 8.66671 5C8.66671 5.26522 8.56135 5.51957 8.37381 5.70711C8.18628 5.89464 7.93192 6 7.66671 6H6.33337C6.06816 6 5.8138 5.89464 5.62627 5.70711C5.43873 5.51957 5.33337 5.26522 5.33337 5ZM11.6667 4C11.4015 4 11.1471 4.10536 10.9596 4.29289C10.7721 4.48043 10.6667 4.73478 10.6667 5C10.6667 5.26522 10.7721 5.51957 10.9596 5.70711C11.1471 5.89464 11.4015 6 11.6667 6H13C13.2653 6 13.5196 5.89464 13.7071 5.70711C13.8947 5.51957 14 5.26522 14 5C14 4.73478 13.8947 4.48043 13.7071 4.29289C13.5196 4.10536 13.2653 4 13 4H11.6667Z" fill="#FCEBD5"/>
<path fillRule="evenodd" clipRule="evenodd" d="M13.8983 14.8983C13.8983 14.3948 14.0983 13.912 14.4543 13.556C14.8103 13.2 15.2931 13 15.7966 13C16.3001 13 16.7829 13.2 17.1389 13.556C17.4949 13.912 17.6949 14.3948 17.6949 14.8983C17.6949 15.4018 17.4949 15.8846 17.1389 16.2406C16.7829 16.5966 16.3001 16.7966 15.7966 16.7966C15.2931 16.7966 14.8103 16.5966 14.4543 16.2406C14.0983 15.8846 13.8983 15.4018 13.8983 14.8983ZM17.1634 18.9863C17.1302 18.4462 16.7847 18.0267 16.2446 17.9954C16.0954 17.987 15.946 17.9828 15.7966 17.9831H14.1356C13.858 17.9831 13.6254 17.9902 13.4327 18.0006C12.8694 18.0319 12.4931 18.4472 12.4788 19.0115C12.4723 19.2751 12.4723 19.5389 12.4788 19.8026C12.4931 20.3664 12.8694 20.7816 13.4327 20.8129C13.7465 20.8297 14.0607 20.835 14.3748 20.8286C14.3729 20.9795 14.3729 21.138 14.3729 21.3051V24.1658C13.7702 24.1786 13.3207 24.1981 12.9909 24.218C12.4717 24.2498 12.0551 24.5692 12.0166 25.0884C12.0062 25.2279 12 25.3893 12 25.5763C12 25.7633 12.0062 25.9246 12.0166 26.0646C12.0546 26.5828 12.4717 26.9027 12.9909 26.9345C13.5414 26.9677 14.4251 27 15.7966 27C17.1681 27 18.0523 26.9677 18.6023 26.9345C19.1215 26.9027 19.5382 26.5833 19.5766 26.0641C19.5871 25.9246 19.5932 25.7633 19.5932 25.5763C19.5932 25.3893 19.5871 25.2279 19.5766 25.0879C19.5386 24.5697 19.1215 24.2498 18.6023 24.218C18.142 24.1914 17.6813 24.174 17.2203 24.1658V21.3051C17.2203 20.2121 17.1938 19.4732 17.1634 18.9863Z" fill="#F59C00"/>
</svg>
