<svg xmlns="http://www.w3.org/2000/svg" width="22" height="22" fill="none"><path fill="#0061C2" d="M5.622 14.667c-.333 0-.665-.045-.986-.132-.478-.13-.726-.579-.723-1.02.01-1.517.057-5.737.3-9.45a1.213 1.213 0 0 1 1.215-1.132h.388A1.213 1.213 0 0 1 7.03 4.065c.243 3.713.291 7.933.3 9.45.003.441-.244.89-.722 1.02a3.792 3.792 0 0 1-.986.132ZM16.378 14.667c.439 0 .814-.098 1.09-.2.421-.159.62-.574.619-.97-.007-1.718-.049-7.426-.313-12.348A1.216 1.216 0 0 0 16.557 0h-.36a1.216 1.216 0 0 0-1.216 1.149c-.264 4.922-.306 10.63-.313 12.347-.002.397.197.812.62.97.274.103.65.2 1.09.2Z"/><path fill="#0061C2" d="M22 14.911c0-.665-.04-1.229-.098-1.7-.186-1.495-1.488-2.318-2.802-2.356-1.547-.046-4.187-.1-8.1-.1-3.913 0-6.552.054-8.1.1-1.314.038-2.616.86-2.802 2.356A13.787 13.787 0 0 0 0 14.91c0 .665.04 1.23.098 1.7.186 1.495 1.488 2.318 2.802 2.356l.047.002c.004.279.01.52.017.726.02.665.464 1.267 1.182 1.312.332.02.665.02.997 0 .718-.045 1.163-.647 1.182-1.312.006-.188.011-.407.016-.657 1.289.017 2.835.029 4.659.029 1.824 0 3.37-.012 4.66-.029.004.25.009.469.015.657.02.665.464 1.267 1.182 1.312.332.02.665.02.997 0 .717-.045 1.163-.647 1.182-1.312.007-.205.013-.447.017-.726l.047-.001c1.314-.04 2.616-.862 2.802-2.357.058-.47.098-1.036.098-1.7Z"/><path fill="#B9E1F6" fillRule="evenodd" d="M8.067 15.156c0-.675.437-1.223.977-1.223h8.8c.54 0 .978.548.978 1.223 0 .674-.437 1.222-.978 1.222h-8.8c-.54 0-.977-.548-.977-1.222ZM3.178 15.156c0-.675.437-1.223.978-1.223h.977c.54 0 .978.548.978 1.223 0 .674-.437 1.222-.978 1.222h-.977c-.54 0-.978-.548-.978-1.222Z" clipRule="evenodd"/></svg>
