<svg width="32" height="32" viewBox="0 0 32 32" fill="none" xmlns="http://www.w3.org/2000/svg">
<g clip-path="url(#clip0_257_298)">
<path d="M20.6226 11.3425C20.4015 11.3425 20.1891 11.3425 19.9884 11.3483C17.9782 11.3891 16.4422 12.7011 15.9884 14.5222C15.3106 14.5222 14.6793 14.5309 14.0975 14.5483C12.2211 14.6007 10.5891 15.2582 9.34402 16.3403H9.32947C8.44802 16.3403 7.6742 15.5985 7.6742 14.7345C7.6742 13.8705 8.44802 13.1287 9.32947 13.1287H9.34402C10.272 13.1345 10.4 13.5825 10.4 13.696C10.4 14.0713 10.7055 14.3767 11.0807 14.3767C11.456 14.3767 11.7615 14.0713 11.7615 13.696C11.7615 12.5614 10.7229 11.7673 9.32947 11.7673H9.31202C7.73238 11.776 6.31274 13.0793 6.31274 14.7374C6.31274 16.0174 7.15929 17.0851 8.27056 17.5098C7.31929 18.8014 6.77529 20.4305 6.76656 22.2283C6.76656 22.3942 6.76656 22.5571 6.76656 22.7229C6.77238 24.4945 7.30183 26.112 8.24147 27.4036C8.03202 27.8691 7.82838 28.3374 7.63347 28.8087C7.30183 29.6058 7.5142 30.5571 8.23565 31.1011C8.43347 31.2494 8.65747 31.4094 8.86111 31.5258C9.06765 31.6451 9.32947 31.7614 9.5622 31.8574C10.3884 32.1978 11.3018 31.9127 11.8255 31.2378C12.0466 30.9527 12.3142 30.6036 12.5993 30.2167C13.0822 30.3214 13.5826 30.3825 14.1004 30.3971C14.7084 30.4145 15.3658 30.4233 16.0815 30.4233C16.7942 30.4233 17.4546 30.4145 18.0626 30.3971C18.5658 30.3854 19.0691 30.3243 19.5637 30.2167C19.8487 30.6036 20.1164 30.9527 20.3375 31.2378C20.8611 31.9127 21.7775 32.1978 22.6007 31.8574C22.8422 31.7614 23.0749 31.6509 23.3018 31.5258C23.5055 31.4094 23.7295 31.2494 23.9273 31.1011C24.6487 30.5542 24.8611 29.6058 24.5295 28.8087C24.3666 28.4189 24.1571 27.9273 23.9215 27.4036C24.3666 26.7898 24.7157 26.1149 24.9571 25.3993C25.0967 25.4109 25.2364 25.4167 25.3731 25.4225C26.3418 25.4574 27.0837 24.7185 27.1506 23.8051C27.1855 23.3629 27.2117 22.7753 27.2117 22.0218C27.2117 21.2683 27.1855 20.6807 27.1506 20.2385C27.0807 19.3222 26.3389 18.5862 25.3731 18.6211C25.1229 18.6298 24.8611 18.6502 24.5964 18.6763C23.968 17.3818 22.9935 16.3142 21.7629 15.5869C21.7571 14.2283 21.6437 13.2974 21.5215 12.6894C21.4778 12.4567 21.4167 12.224 21.344 11.9971C21.3149 11.9098 21.28 11.8225 21.2422 11.7382V11.7294L21.2364 11.7265V11.7236C21.12 11.4938 20.8844 11.3483 20.6255 11.3483L20.6226 11.3425Z" fill="#F59C00"/>
<path fillRule="evenodd" clipRule="evenodd" d="M20.1688 18.0421C20.608 18.0421 20.9629 18.397 20.9629 18.8363V19.2901C20.9629 19.7294 20.608 20.0843 20.1688 20.0843C19.7295 20.0843 19.3746 19.7294 19.3746 19.2901V18.8363C19.3746 18.397 19.7295 18.0421 20.1688 18.0421Z" fill="#9C6A46"/>
<path fillRule="evenodd" clipRule="evenodd" d="M15.5957 16.8989C15.6015 17.2742 15.2989 17.5825 14.9237 17.5883C14.6968 17.5883 14.4786 17.5942 14.272 17.6C13.0968 17.6291 12.128 18.0683 11.4531 18.7462C11.1826 19.008 10.752 19.0022 10.4902 18.7316C10.2342 18.4669 10.2342 18.0509 10.4902 17.7862C11.4269 16.8436 12.736 16.2793 14.24 16.2385C14.4553 16.2327 14.6764 16.2298 14.9091 16.2269C15.2844 16.2211 15.5928 16.5236 15.5986 16.8989H15.5957Z" fill="#9C6A46"/>
<path d="M13.5011 11.9157C14.7045 11.9157 15.68 10.9401 15.68 9.73677C15.68 8.53339 14.7045 7.55786 13.5011 7.55786C12.2977 7.55786 11.3222 8.53339 11.3222 9.73677C11.3222 10.9401 12.2977 11.9157 13.5011 11.9157Z" fill="#FCEBD5"/>
<path d="M8.68654 8.41019C9.88992 8.41019 10.8654 7.43466 10.8654 6.23128C10.8654 5.0279 9.88992 4.05237 8.68654 4.05237C7.48316 4.05237 6.50763 5.0279 6.50763 6.23128C6.50763 7.43466 7.48316 8.41019 8.68654 8.41019Z" fill="#FCEBD5"/>
<path d="M12.4655 4.35782C13.6688 4.35782 14.6444 3.38229 14.6444 2.17891C14.6444 0.975531 13.6688 0 12.4655 0C11.2621 0 10.2866 0.975531 10.2866 2.17891C10.2866 3.38229 11.2621 4.35782 12.4655 4.35782Z" fill="#FCEBD5"/>
</g>
<defs>
<clipPath id="clip0_257_298">
<rect width="32" height="32" fill="white"/>
</clipPath>
</defs>
</svg>
