<svg width="25" height="30" viewBox="0 0 25 30" fill="none" xmlns="http://www.w3.org/2000/svg">
<g id="Group">
<g id="1711464248156-1445559_politics-speech">
<path id="1711464248156-1445559_Union" d="M20 19.2086C19.9999 19.2898 19.9703 19.3683 19.9165 19.4292C19.8627 19.4901 19.7886 19.5292 19.708 19.5393H19.7053L19.6986 19.54L19.6746 19.5433L19.58 19.554C18.9785 19.6162 18.376 19.6674 17.7726 19.7073C15.9619 19.8231 14.1478 19.8792 12.3333 19.8753C9.99263 19.8753 8.15129 19.7913 6.89463 19.7073C6.29106 19.6674 5.68829 19.6163 5.08663 19.554C5.05506 19.5505 5.0235 19.547 4.99196 19.5433L4.96729 19.54H4.96063L4.95863 19.5393C4.87791 19.5292 4.80366 19.4899 4.74988 19.4289C4.6961 19.3679 4.66649 19.2893 4.66663 19.208C4.66663 15.88 5.30729 13.1926 5.79996 11.616C6.14263 10.5213 7.02129 9.69795 8.17129 9.50662C9.10796 9.35129 10.474 9.20862 12.3333 9.20862C14.1933 9.20862 15.5586 9.35129 16.4953 9.50662C17.6453 9.69795 18.524 10.5213 18.866 11.616C19.36 13.192 20 15.88 20 19.2086Z" fill="#FCEBD5"/>
<path id="1711464248156-1445559_Union_2" d="M20 19.2086C19.9999 19.2898 19.9703 19.3683 19.9165 19.4292C19.8627 19.4901 19.7886 19.5292 19.708 19.5393H19.7053L19.6986 19.54L19.6746 19.5433L19.58 19.554C18.9785 19.6162 18.376 19.6674 17.7726 19.7073C15.9619 19.8231 14.1478 19.8792 12.3333 19.8753C9.99263 19.8753 8.15129 19.7913 6.89463 19.7073C6.29106 19.6674 5.68829 19.6163 5.08663 19.554C5.05506 19.5505 5.0235 19.547 4.99196 19.5433L4.96729 19.54H4.96063L4.95863 19.5393C4.87791 19.5292 4.80366 19.4899 4.74988 19.4289C4.6961 19.3679 4.66649 19.2893 4.66663 19.208C4.66663 15.88 5.30729 13.1926 5.79996 11.616C6.14263 10.5213 7.02129 9.69795 8.17129 9.50662C9.10796 9.35129 10.474 9.20862 12.3333 9.20862C14.1933 9.20862 15.5586 9.35129 16.4953 9.50662C17.6453 9.69795 18.524 10.5213 18.866 11.616C19.36 13.192 20 15.88 20 19.2086Z" fill="#FCEBD5"/>
<path id="1711464248156-1445559_Ellipse 135" d="M8.33337 4.20862C8.33337 5.26948 8.7548 6.2869 9.50495 7.03705C10.2551 7.78719 11.2725 8.20862 12.3334 8.20862C13.3942 8.20862 14.4117 7.78719 15.1618 7.03705C15.9119 6.2869 16.3334 5.26948 16.3334 4.20862C16.3334 3.14775 15.9119 2.13034 15.1618 1.38019C14.4117 0.630046 13.3942 0.208618 12.3334 0.208618C11.2725 0.208618 10.2551 0.630046 9.50495 1.38019C8.7548 2.13034 8.33337 3.14775 8.33337 4.20862Z" fill="#FCEBD5"/>
<path id="1711464248156-1445559_Union_3" d="M2.66664 17.2087C2.52609 17.2088 2.38713 17.2385 2.25883 17.2959C2.13054 17.3533 2.01578 17.4371 1.92205 17.5418C1.82832 17.6466 1.75773 17.7699 1.71487 17.9037C1.67201 18.0376 1.65784 18.179 1.6733 18.3187C2.1733 22.82 2.6733 26.3867 2.8933 27.902C2.95804 28.3513 3.17516 28.7646 3.50831 29.0729C3.84145 29.3811 4.27039 29.5656 4.7233 29.5953C6.16064 29.69 9.3353 29.8753 12.3333 29.8753C15.3313 29.8753 18.506 29.69 19.9433 29.5953C20.3961 29.5654 20.8249 29.3809 21.1579 29.0727C21.4909 28.7644 21.7079 28.3511 21.7726 27.902C22.2324 24.7145 22.6395 21.5196 22.994 18.3187C23.0095 18.1789 22.9954 18.0373 22.9526 17.9034C22.9097 17.7694 22.8391 17.6459 22.7453 17.5411C22.6515 17.4363 22.5366 17.3524 22.4082 17.295C22.2797 17.2376 22.1406 17.208 22 17.208L2.66664 17.2087Z" fill="#F59C00"/>
<path id="1711464248156-1445559_Vector 1405 (Stroke)" fillRule="evenodd" clipRule="evenodd" d="M12.3334 12.542C12.5986 12.542 12.8529 12.6473 13.0405 12.8349C13.228 13.0224 13.3334 13.2768 13.3334 13.542V16.8753C13.3334 17.1405 13.228 17.3949 13.0405 17.5824C12.8529 17.77 12.5986 17.8753 12.3334 17.8753C12.0682 17.8753 11.8138 17.77 11.6263 17.5824C11.4387 17.3949 11.3334 17.1405 11.3334 16.8753V13.542C11.3334 13.2768 11.4387 13.0224 11.6263 12.8349C11.8138 12.6473 12.0682 12.542 12.3334 12.542Z" fill="#F59C00"/>
<path id="1711464248156-1445559_Union_4" d="M0 18.8753C0 18.3467 0.0746667 17.9367 0.166667 17.6333C0.389333 16.9 1.06133 16.6073 1.58667 16.6C2.644 16.5847 6.13133 16.542 12.3333 16.542C18.5353 16.542 22.0227 16.5847 23.08 16.6C23.6053 16.6073 24.2773 16.9 24.5 17.6333C24.592 17.9367 24.6667 18.3467 24.6667 18.8753C24.6667 19.4033 24.592 19.8133 24.5 20.1167C24.2773 20.85 23.6053 21.1427 23.08 21.15C22.0227 21.1653 18.5353 21.208 12.3333 21.208C6.13133 21.208 2.644 21.1653 1.58667 21.15C1.06133 21.1427 0.389333 20.85 0.166667 20.1167C0.0746667 19.8133 0 19.404 0 18.8753Z" fill="#F59C00"/>
</g>
</g>
</svg>
