<svg width="32" height="32" viewBox="0 0 32 32" fill="none" xmlns="http://www.w3.org/2000/svg">
<path fillRule="evenodd" clipRule="evenodd" d="M6.24925 30.7C8.29258 30.8413 11.6919 31 16.6666 31C21.6413 31 25.0399 30.8413 27.0839 30.7C28.9639 30.57 30.4839 29.1626 30.6706 27.2506C30.8353 25.5673 30.9999 22.9726 30.9999 19.3333C30.9999 15.694 30.8353 13.0993 30.6706 11.416C30.4839 9.50396 28.9639 8.09596 27.0839 7.96663C25.0406 7.82529 21.6413 7.66663 16.6666 7.66663C11.6919 7.66663 8.29325 7.82529 6.24925 7.96663C4.36925 8.09663 2.84925 9.50396 2.66259 11.416C2.49792 13.0993 2.33325 15.694 2.33325 19.3333C2.33325 22.9726 2.49792 25.5673 2.66259 27.2506C2.84925 29.1626 4.36925 30.5706 6.24925 30.7Z" fill="#FCEBD5"/>
<path fillRule="evenodd" clipRule="evenodd" d="M23.8173 1.00599C25.96 0.897986 27.8426 2.29132 28.288 4.40599C28.5146 5.48132 28.7813 6.88599 29.0586 8.65399C28.4745 8.25083 27.7922 8.01332 27.084 7.96665C25.0406 7.82532 21.6413 7.66665 16.6666 7.66665C11.692 7.66665 8.29331 7.82532 6.24931 7.96665C4.36931 8.09665 2.84931 9.50399 2.66264 11.416C2.49798 13.0993 2.33331 15.694 2.33331 19.3333C2.33331 19.69 2.33464 20.0373 2.33798 20.3733C2.1133 18.9542 1.91305 17.5313 1.73731 16.1053C1.26664 12.3153 1.07531 9.55865 1.00398 7.72399C0.918644 5.56399 2.40731 3.75799 4.51464 3.34932C6.51998 2.96132 9.66264 2.43065 14.13 1.88865C18.5966 1.34599 21.7766 1.10865 23.8166 1.00599H23.8173Z" fill="#F59C00"/>
<path fillRule="evenodd" clipRule="evenodd" d="M7.33325 24.3334C7.06804 24.3334 6.81368 24.4387 6.62615 24.6263C6.43861 24.8138 6.33325 25.0682 6.33325 25.3334C6.33325 25.5986 6.43861 25.8529 6.62615 26.0405C6.81368 26.228 7.06804 26.3334 7.33325 26.3334H25.9999C26.2651 26.3334 26.5195 26.228 26.707 26.0405C26.8946 25.8529 26.9999 25.5986 26.9999 25.3334C26.9999 25.0682 26.8946 24.8138 26.707 24.6263C26.5195 24.4387 26.2651 24.3334 25.9999 24.3334H7.33325Z" fill="#F59C00"/>
<path d="M6.33325 21.3334C6.33325 21.0682 6.43861 20.8138 6.62615 20.6263C6.81368 20.4387 7.06804 20.3334 7.33325 20.3334H12.6666C12.9318 20.3334 13.1862 20.4387 13.3737 20.6263C13.5612 20.8138 13.6666 21.0682 13.6666 21.3334C13.6666 21.5986 13.5612 21.8529 13.3737 22.0405C13.1862 22.228 12.9318 22.3334 12.6666 22.3334H7.33325C7.06804 22.3334 6.81368 22.228 6.62615 22.0405C6.43861 21.8529 6.33325 21.5986 6.33325 21.3334Z" fill="#F59C00"/>
<path d="M6.33325 17.3334C6.33325 17.0682 6.43861 16.8138 6.62615 16.6263C6.81368 16.4387 7.06804 16.3334 7.33325 16.3334H12.6666C12.9318 16.3334 13.1862 16.4387 13.3737 16.6263C13.5612 16.8138 13.6666 17.0682 13.6666 17.3334C13.6666 17.5986 13.5612 17.8529 13.3737 18.0405C13.1862 18.228 12.9318 18.3334 12.6666 18.3334H7.33325C7.06804 18.3334 6.81368 18.228 6.62615 18.0405C6.43861 17.8529 6.33325 17.5986 6.33325 17.3334Z" fill="#F59C00"/>
<path d="M6.33325 13.3334C6.33325 13.0682 6.43861 12.8138 6.62615 12.6263C6.81368 12.4387 7.06804 12.3334 7.33325 12.3334H12.6666C12.9318 12.3334 13.1862 12.4387 13.3737 12.6263C13.5612 12.8138 13.6666 13.0682 13.6666 13.3334C13.6666 13.5986 13.5612 13.8529 13.3737 14.0405C13.1862 14.228 12.9318 14.3334 12.6666 14.3334H7.33325C7.06804 14.3334 6.81368 14.228 6.62615 14.0405C6.43861 13.8529 6.33325 13.5986 6.33325 13.3334Z" fill="#F59C00"/>
<path d="M18.288 22.2466C19.0086 22.2933 20.0126 22.3333 21.3333 22.3333C22.6533 22.3333 23.658 22.2933 24.3786 22.2466C24.8657 22.2206 25.3259 22.0154 25.6708 21.6706C26.0157 21.3258 26.221 20.8657 26.2473 20.3786C26.294 19.658 26.3333 18.654 26.3333 17.3333C26.3333 16.0133 26.2933 15.0086 26.2466 14.288C26.2206 13.801 26.0154 13.3408 25.6706 12.9958C25.3258 12.6509 24.8657 12.4456 24.3786 12.4193C23.3647 12.3584 22.3491 12.3297 21.3333 12.3333C20.0133 12.3333 19.0086 12.3733 18.288 12.42C17.801 12.4461 17.3408 12.6512 16.9958 12.996C16.6509 13.3409 16.4456 13.801 16.4193 14.288C16.3584 15.3019 16.3297 16.3175 16.3333 17.3333C16.3333 18.6533 16.3733 19.658 16.42 20.3786C16.4461 20.8657 16.6512 21.3259 16.996 21.6708C17.3409 22.0157 17.801 22.2204 18.288 22.2466Z" fill="#F59C00"/>
</svg>
