<svg width="30" height="26" viewBox="0 0 30 26" fill="none" xmlns="http://www.w3.org/2000/svg">
<g id="Group">
<g id="1711464248305-6200869_credit-card-1--credit-pay-payment-debit-card-finance-plastic-money-atm">
<path id="1711464248305-6200869_Union" d="M15 25.3334C10.06 25.3334 6.6 25.1827 4.42467 25.0394C2.256 24.8967 0.513333 23.2727 0.314667 21.0727C0.152667 19.2847 0 16.6334 0 13C0 9.36669 0.153333 6.71535 0.314667 4.92669C0.513333 2.72669 2.256 1.10335 4.42467 0.960687C6.59933 0.817354 10.0593 0.666687 15 0.666687C19.94 0.666687 23.4 0.817354 25.5753 0.960687C27.744 1.10335 29.4867 2.72735 29.6853 4.92735C29.8473 6.71535 30 9.36735 30 13C30 16.6327 29.8467 19.2847 29.6853 21.0734C29.4867 23.2734 27.744 24.8967 25.5753 25.0394C23.4007 25.1827 19.9407 25.3334 15 25.3334Z" fill="#FCEBD5"/>
<path id="1711464248305-6200869_Union_2" d="M18 19C18 18.7554 18.002 18.5387 18.0053 18.3467C18.0207 17.452 18.636 16.7547 19.5547 16.7094C20.2582 16.678 20.9624 16.6637 21.6667 16.6667C22.608 16.6667 23.2887 16.6847 23.7787 16.7094C24.6973 16.7547 25.3127 17.452 25.328 18.3467C25.3354 18.7822 25.3354 19.2178 25.328 19.6534C25.3127 20.548 24.6973 21.2454 23.7787 21.2907C23.2887 21.3154 22.608 21.3334 21.6667 21.3334C20.7113 21.3334 20.0247 21.314 19.532 21.288C18.624 21.24 18.0207 20.5494 18.0053 19.6674C18.0016 19.4449 17.9998 19.2225 18 19Z" fill="#F59C00"/>
<path id="1711464248305-6200869_Intersect" d="M29.998 12.3707C27.528 12.42 22.3813 12.5 15 12.5C7.61801 12.5 2.47134 12.42 0.00134277 12.3707C0.0120094 10.2094 0.0773428 8.41471 0.163343 6.96137C2.60801 6.91204 7.66534 6.83337 15 6.83337C22.3333 6.83337 27.3913 6.91204 29.836 6.96137C29.9227 8.41471 29.9873 10.2094 29.998 12.3707Z" fill="#F59C00"/>
</g>
</g>
</svg>
