<svg width="32" height="29" viewBox="0 0 32 29" fill="none" xmlns="http://www.w3.org/2000/svg">
<g id="Group">
<g id="1711464248300-9712850_dangerous-zone-sign">
<path id="1711464248300-9712850_Union" d="M1.18264 23.49C0.769304 24.7147 0.967304 25.93 1.6393 26.868C2.3033 27.7947 3.37997 28.3847 4.61597 28.5013C7.16797 28.7413 11.056 29 15.9993 29C20.9426 29 24.8313 28.742 27.3833 28.5013C28.6193 28.3847 29.696 27.7947 30.36 26.868C31.032 25.93 31.23 24.7147 30.8166 23.49C30.0733 21.29 28.6766 17.9387 26.046 13.0767C23.202 7.82201 20.836 4.34668 19.1926 2.19668C17.5246 0.0146807 14.4746 0.0146807 12.8066 2.19668C11.1633 4.34668 8.79664 7.82201 5.9533 13.0767C3.32264 17.9387 1.92597 21.29 1.18264 23.49Z" fill="#FCEBD5"/>
<path id="1711464248300-9712850_Union_2" d="M18.756 14.3734C18.6737 14.5831 18.5892 14.792 18.5027 15H20.058C21.4094 15 22.1974 16.5247 21.306 17.5907C19.7987 19.396 17.346 22.096 14.4174 24.4327C13.6467 25.0474 12.6327 24.282 12.9014 23.3874L14.2194 18.9967C13.5894 18.9921 12.9594 18.9903 12.3294 18.9914C11.2687 18.9934 10.4607 18.016 10.7367 16.968C11.1134 15.5387 11.7594 13.3314 12.6787 11.04C12.9287 10.4167 13.4607 9.92402 14.1594 9.81669C14.6727 9.73802 15.3974 9.66669 16.3327 9.66669C17.028 9.66669 17.644 9.70669 18.1547 9.75802C19.2414 9.86935 19.9187 10.9074 19.6067 11.9474C19.3562 12.7675 19.0724 13.577 18.756 14.374V14.3734Z" fill="#F59C00"/>
</g>
</g>
</svg>
