<svg width="29" height="29" viewBox="0 0 29 29" fill="none" xmlns="http://www.w3.org/2000/svg">
<g id="Group">
<g id="1711464248134-1573596_free-return">
<path id="1711464248134-1573596_Union" d="M7 18C7 21.1387 7.1 23.3887 7.212 24.9253C7.36533 27.0307 8.96933 28.6347 11.0753 28.788C12.6113 28.9 14.8613 29 18 29C21.1387 29 23.3887 28.9 24.9253 28.788C27.0307 28.6347 28.6347 27.0307 28.788 24.9253C28.9 23.3887 29 21.1387 29 18C29 14.8613 28.9 12.6113 28.788 11.0753C28.6347 8.96933 27.0307 7.36533 24.9253 7.212C23.3887 7.1 21.1387 7 18 7C14.8613 7 12.6113 7.1 11.0753 7.212C8.96933 7.36533 7.36533 8.96933 7.212 11.0753C7.1 12.6107 7 14.8607 7 18Z" fill="#FCEBD5"/>
<path id="1711464248134-1573596_Union_2" d="M3.148 19.7907C1.53733 19.6733 0.326667 18.4627 0.209333 16.852C0.0993332 15.3433 0 13.118 0 10C0 6.882 0.0993332 4.65667 0.209333 3.148C0.326667 1.53733 1.53733 0.326667 3.148 0.209333C4.65667 0.0993333 6.882 0 10 0C13.118 0 15.3433 0.0993333 16.852 0.209333C18.4627 0.326667 19.6733 1.53733 19.7907 3.148C19.8353 3.75933 19.878 4.488 19.9133 5.34667C18.5456 5.32719 17.1777 5.32853 15.81 5.35067C15.6447 4.684 15.0887 4.204 14.3767 4.146C13.4753 4.07333 12.064 4 10 4C7.936 4 6.52533 4.07267 5.62267 4.14667C5.23962 4.17241 4.87889 4.33616 4.60736 4.60757C4.33583 4.87897 4.17191 5.23963 4.146 5.62267C4.07333 6.52533 4 7.93667 4 10C4 12.0633 4.07267 13.4747 4.14667 14.3773C4.17241 14.7604 4.33616 15.1211 4.60757 15.3926C4.87897 15.6642 5.23963 15.8281 5.62267 15.854C6.19733 15.9007 6.978 15.9473 8.00133 15.9747C8.586 15.9907 9.25 16 10 16C11.8147 16 13.126 15.944 14.0293 15.88C14.0487 15.2347 14.076 14.7107 14.1067 14.288C14.1673 13.4453 15.0067 13.058 15.7147 13.5187C17.5773 14.7287 18.8333 15.8787 19.6147 16.7113C20.312 17.4547 20.312 18.5453 19.6147 19.2887C18.8333 20.1207 17.5773 21.2713 15.7147 22.4813C15.006 22.9413 14.168 22.5547 14.1067 21.712C14.0659 21.1209 14.0383 20.529 14.024 19.9367C12.8907 19.9753 11.5567 20 10 20C9.29333 20 8.63133 19.9947 8.014 19.986C7.12016 19.9732 6.22653 19.9488 5.33333 19.9127C4.60429 19.8836 3.87575 19.8429 3.148 19.7907Z" fill="#F59C00"/>
</g>
</g>
</svg>
