<svg width="31" height="31" viewBox="0 0 31 31" fill="none" xmlns="http://www.w3.org/2000/svg">
<g id="Group">
<g id="1711464248334-3460338_threat-browser-1--bug-browser-file-threat-danger-internet">
<path id="1711464248334-3460338_Subtract" d="M4.37067 25.71C6.356 25.8553 9.404 26 13.6667 26C13.9013 26 14.1333 26 14.3607 25.9987C14.3629 25.9927 14.3651 25.9867 14.3673 25.9807C14.836 24.7813 15.5207 23.2473 16.5193 21.3127C17.5627 19.2927 18.494 17.7187 19.2753 16.514C20.1447 15.1727 21.5213 14.396 23 14.396C24.4787 14.396 25.8553 15.1727 26.7247 16.514C26.898 16.7813 27.0793 17.0673 27.2673 17.3727C27.308 16.0993 27.3333 14.6447 27.3333 13C27.3333 9.06133 27.188 6.21533 27.038 4.328C26.864 2.12733 25.154 0.450667 22.9627 0.29C20.9773 0.144667 17.9293 0 13.6667 0C9.404 0 6.356 0.144667 4.37067 0.29C2.17933 0.45 0.469333 2.12733 0.295333 4.328C0.145333 6.21467 0 9.06133 0 13C0 16.9387 0.145333 19.7847 0.294667 21.672C0.469333 23.8727 2.17933 25.5493 4.37067 25.71Z" fill="#FCEBD5"/>
<path id="1711464248334-3460338_Intersect" d="M27.188 6.66667H0.146667C0.192001 5.766 0.243334 4.988 0.296001 4.328C0.470667 2.12733 2.18067 0.450667 4.37133 0.29C6.35667 0.144667 9.404 0 13.6667 0C17.9293 0 20.9773 0.144667 22.9633 0.29C25.154 0.45 26.864 2.12733 27.0387 4.328C27.0907 4.988 27.1427 5.766 27.188 6.66667Z" fill="#F59C00"/>
<path id="1711464248334-3460338_Subtract_2" fillRule="evenodd" clipRule="evenodd" d="M4 3.66669C4 3.40147 4.10536 3.14712 4.29289 2.95958C4.48043 2.77204 4.73478 2.66669 5 2.66669H6.33333C6.59855 2.66669 6.8529 2.77204 7.04044 2.95958C7.22798 3.14712 7.33333 3.40147 7.33333 3.66669C7.33333 3.9319 7.22798 4.18626 7.04044 4.37379C6.8529 4.56133 6.59855 4.66669 6.33333 4.66669H5C4.73478 4.66669 4.48043 4.56133 4.29289 4.37379C4.10536 4.18626 4 3.9319 4 3.66669ZM9.66667 2.66669C9.40145 2.66669 9.1471 2.77204 8.95956 2.95958C8.77202 3.14712 8.66667 3.40147 8.66667 3.66669C8.66667 3.9319 8.77202 4.18626 8.95956 4.37379C9.1471 4.56133 9.40145 4.66669 9.66667 4.66669H11C11.2652 4.66669 11.5196 4.56133 11.7071 4.37379C11.8946 4.18626 12 3.9319 12 3.66669C12 3.40147 11.8946 3.14712 11.7071 2.95958C11.5196 2.77204 11.2652 2.66669 11 2.66669H9.66667Z" fill="#FCEBD5"/>
<path id="1711464248334-3460338_Subtract_3" fillRule="evenodd" clipRule="evenodd" d="M15.92 26.5867C15.21 28.4033 16.4093 30.042 18.3547 30.1773C19.6013 30.264 21.166 30.3334 22.9994 30.3334C24.8327 30.3334 26.398 30.2647 27.644 30.1773C29.5893 30.042 30.7893 28.404 30.0793 26.5873C29.6354 25.45 28.9767 23.9693 27.9994 22.078C26.9794 20.1033 26.0753 18.5767 25.326 17.4207C24.1513 15.61 21.8473 15.61 20.6727 17.4207C19.9233 18.5767 19.0194 20.1033 17.9994 22.078C17.0227 23.9693 16.364 25.45 15.9193 26.5873L15.92 26.5867Z" fill="#F59C00"/>
<path id="1711464248334-3460338_Subtract_4" fillRule="evenodd" clipRule="evenodd" d="M24 20.3333C24 20.0681 23.8946 19.8137 23.7071 19.6262C23.5196 19.4387 23.2652 19.3333 23 19.3333C22.7348 19.3333 22.4804 19.4387 22.2929 19.6262C22.1054 19.8137 22 20.0681 22 20.3333V23.6666C22 23.9319 22.1054 24.1862 22.2929 24.3738C22.4804 24.5613 22.7348 24.6666 23 24.6666C23.2652 24.6666 23.5196 24.5613 23.7071 24.3738C23.8946 24.1862 24 23.9319 24 23.6666V20.3333ZM24 27C24 26.7348 23.8946 26.4804 23.7071 26.2929C23.5196 26.1053 23.2652 26 23 26C22.7348 26 22.4804 26.1053 22.2929 26.2929C22.1054 26.4804 22 26.7348 22 27V27.6666C22 27.9319 22.1054 28.1862 22.2929 28.3738C22.4804 28.5613 22.7348 28.6666 23 28.6666C23.2652 28.6666 23.5196 28.5613 23.7071 28.3738C23.8946 28.1862 24 27.9319 24 27.6666V27Z" fill="#FCEBD5"/>
<g id="1711464248334-3460338_Union">
<path d="M5.66665 11C5.31302 11 4.97389 11.1405 4.72384 11.3905C4.47379 11.6406 4.33331 11.9797 4.33331 12.3333C4.33331 12.687 4.47379 13.0261 4.72384 13.2761C4.97389 13.5262 5.31302 13.6667 5.66665 13.6667H13.6666C14.0203 13.6667 14.3594 13.5262 14.6095 13.2761C14.8595 13.0261 15 12.687 15 12.3333C15 11.9797 14.8595 11.6406 14.6095 11.3905C14.3594 11.1405 14.0203 11 13.6666 11H5.66665Z" fill="#F59C00"/>
<path d="M5.66665 17C5.31302 17 4.97389 17.1405 4.72384 17.3905C4.47379 17.6406 4.33331 17.9797 4.33331 18.3333C4.33331 18.687 4.47379 19.0261 4.72384 19.2761C4.97389 19.5262 5.31302 19.6667 5.66665 19.6667H9.66665C10.0203 19.6667 10.3594 19.5262 10.6095 19.2761C10.8595 19.0261 11 18.687 11 18.3333C11 17.9797 10.8595 17.6406 10.6095 17.3905C10.3594 17.1405 10.0203 17 9.66665 17H5.66665Z" fill="#F59C00"/>
</g>
</g>
</g>
</svg>
