<svg width="30" height="30" viewBox="0 0 30 30" fill="none" xmlns="http://www.w3.org/2000/svg">
<g id="Group">
<g id="1711464248308-1250798_store-1--store-shop-shops-stores">
<path id="1711464248308-1250798_Subtract" fillRule="evenodd" clipRule="evenodd" d="M1.33337 14.03C1.36871 14.0627 1.40471 14.0947 1.44137 14.126C2.30404 14.8693 3.42071 15.2167 4.50071 15.2167C5.58071 15.2167 6.69737 14.87 7.55937 14.126C7.71737 13.99 7.86471 13.8427 8.00071 13.6833C8.13604 13.8427 8.28337 13.99 8.44137 14.126C9.30404 14.8693 10.4207 15.2167 11.5007 15.2167C12.5807 15.2167 13.6967 14.87 14.5594 14.126C14.7174 13.99 14.8647 13.8427 15.0007 13.6833C15.136 13.8427 15.2834 13.99 15.4414 14.126C16.304 14.8693 17.4207 15.2167 18.5007 15.2167C19.5807 15.2167 20.6967 14.87 21.5594 14.126C21.7174 13.99 21.8647 13.8427 22.0007 13.6833C22.136 13.8427 22.2834 13.99 22.4414 14.126C23.304 14.8693 24.4207 15.2167 25.5007 15.2167C26.5807 15.2167 27.6967 14.87 28.5594 14.126C28.596 14.0947 28.6314 14.0633 28.6667 14.0307V18.9994C28.6667 21.9907 28.5467 24.2307 28.4114 25.8027C28.222 28.0073 26.4714 29.624 24.3047 29.7567C22.324 29.878 19.274 29.9993 15 29.9993C10.7267 29.9993 7.67604 29.878 5.69537 29.7567C3.52871 29.624 1.77804 28.008 1.58871 25.8027C1.45404 24.2307 1.33337 21.9907 1.33337 18.9994V14.03Z" fill="#FCEBD5"/>
<path id="1711464248308-1250798_Rectangle 1763" d="M3.66663 18.6667C3.66663 18.2246 3.84222 17.8007 4.15478 17.4882C4.46734 17.1756 4.89127 17 5.33329 17H14.6666C15.1087 17 15.5326 17.1756 15.8451 17.4882C16.1577 17.8007 16.3333 18.2246 16.3333 18.6667V22.6667C16.3333 23.1087 16.1577 23.5326 15.8451 23.8452C15.5326 24.1577 15.1087 24.3333 14.6666 24.3333H5.33329C4.89127 24.3333 4.46734 24.1577 4.15478 23.8452C3.84222 23.5326 3.66663 23.1087 3.66663 22.6667V18.6667Z" fill="#F59C00"/>
<path id="1711464248308-1250798_Rectangle 1764" d="M19 18.6667C19 18.2246 19.1756 17.8007 19.4882 17.4882C19.8007 17.1756 20.2246 17 20.6667 17H24.6667C24.8855 17 25.1023 17.0431 25.3045 17.1269C25.5067 17.2106 25.6904 17.3334 25.8452 17.4882C25.9999 17.6429 26.1227 17.8267 26.2065 18.0289C26.2902 18.2311 26.3333 18.4478 26.3333 18.6667V25.3333C26.3333 25.5522 26.2902 25.7689 26.2065 25.9711C26.1227 26.1733 25.9999 26.3571 25.8452 26.5118C25.6904 26.6666 25.5067 26.7894 25.3045 26.8731C25.1023 26.9569 24.8855 27 24.6667 27H20.6667C20.2246 27 19.8007 26.8244 19.4882 26.5118C19.1756 26.1993 19 25.7754 19 25.3333V18.6667Z" fill="#F59C00"/>
<path id="1711464248308-1250798_Union" d="M15 0C10.408 0 7.46 0.208667 5.70933 0.402667C4.02467 0.589333 2.696 1.73667 2.12467 3.26C1.08267 6.03933 0.553333 7.88533 0.283333 9.05467C0.182169 9.47945 0.10141 9.90883 0.0413334 10.3413C0.0225174 10.483 0.00917414 10.6253 0.00133332 10.768L0.000666698 10.8013V10.814V10.8193V10.822V10.8233L0 10.8247C0 12.238 0.558 13.366 1.44133 14.1267C2.304 14.87 3.42067 15.2173 4.50067 15.2173C5.58067 15.2173 6.69733 14.87 7.55933 14.1267C7.71733 13.9907 7.86467 13.8433 8.00067 13.684C8.136 13.8433 8.28333 13.9907 8.44133 14.1267C9.304 14.87 10.4207 15.2173 11.5007 15.2173C12.5807 15.2173 13.6967 14.87 14.5593 14.1267C14.7173 13.9907 14.8647 13.8433 15.0007 13.684C15.136 13.8433 15.2833 13.9907 15.4413 14.1267C16.304 14.87 17.4207 15.2173 18.5007 15.2173C19.5807 15.2173 20.6967 14.87 21.5593 14.1267C21.7173 13.9907 21.8647 13.8433 22.0007 13.684C22.136 13.8433 22.2833 13.9907 22.4413 14.1267C23.304 14.87 24.4207 15.2173 25.5007 15.2173C26.5807 15.2173 27.6967 14.87 28.5593 14.1267C29.4427 13.366 30.0007 12.238 30.0007 10.8247V10.8233V10.822V10.8193V10.814V10.8007C29.9998 10.7573 29.9976 10.7139 29.994 10.6707C29.9859 10.5606 29.9746 10.4508 29.96 10.3413C29.8997 9.90881 29.8187 9.47943 29.7173 9.05467C29.4473 7.88533 28.918 6.03933 27.8767 3.26C27.3053 1.73667 25.9767 0.589333 24.2913 0.402667C22.5413 0.208667 19.5927 0 15 0Z" fill="#F59C00"/>
</g>
</g>
</svg>
