<svg width="30" height="28" viewBox="0 0 30 28" fill="none" xmlns="http://www.w3.org/2000/svg">
<g id="kundvagn 1" clip-path="url(#clip0_253_150)">
<path id="Vector" d="M19.1266 6.01049L21.7531 6.37067C22.2878 6.4427 22.6148 6.99128 22.4319 7.49553L21.767 9.31858C21.6146 9.73694 21.1602 9.9669 20.7308 9.83668L18.603 9.19944C18.2123 9.08308 17.9629 8.70628 18.0045 8.30177L18.168 6.75578C18.2178 6.28201 18.6501 5.944 19.1211 6.00772L19.1266 6.01049Z" fill="#FCEBD5"/>
<g id="Group">
<path id="Vector_2" d="M9.57733 19.9963H23.7226C24.5466 19.9963 25.262 19.3842 25.4373 18.5259L26.9591 11.0618C27.1975 9.8974 26.363 8.80019 25.2444 8.80019H8.88304L7.69083 4.62032C7.52953 4.06798 7.14031 3.6276 6.63186 3.42233L3.37081 2.11986C2.46262 1.75785 1.45275 2.24301 1.11261 3.20961C0.772483 4.1762 1.22833 5.25103 2.13652 5.61303L4.59107 6.59456L8.11862 18.8505C8.31499 19.5335 8.90759 20 9.57733 20V19.9963Z" fill="#F59C00"/>
<path id="Vector_3" d="M10.56 27.3335C11.9197 27.3335 13.0219 26.2312 13.0219 24.8716C13.0219 23.5119 11.9197 22.4097 10.56 22.4097C9.20037 22.4097 8.09814 23.5119 8.09814 24.8716C8.09814 26.2312 9.20037 27.3335 10.56 27.3335Z" fill="#F59C00"/>
<path id="Vector_4" d="M21.9832 27.3335C23.3429 27.3335 24.4451 26.2312 24.4451 24.8716C24.4451 23.5119 23.3429 22.4097 21.9832 22.4097C20.6235 22.4097 19.5213 23.5119 19.5213 24.8716C19.5213 26.2312 20.6235 27.3335 21.9832 27.3335Z" fill="#F59C00"/>
</g>
<path id="Vector_5" d="M19.3242 3.28403L16.8473 3.76888C16.3126 3.87416 15.8637 3.3616 16.0383 2.8435L16.8362 0.482954C17.0108 -0.0323765 17.6757 -0.168136 18.0387 0.236371L19.7176 2.11483C20.0861 2.52488 19.8645 3.18151 19.3242 3.2868V3.28403Z" fill="#FCEBD5"/>
<path id="Vector_6" d="M13.8059 7.96268C14.8219 7.96268 15.6455 7.13902 15.6455 6.123C15.6455 5.10698 14.8219 4.28333 13.8059 4.28333C12.7898 4.28333 11.9662 5.10698 11.9662 6.123C11.9662 7.13902 12.7898 7.96268 13.8059 7.96268Z" fill="#FCEBD5"/>
</g>
<defs>
<clipPath id="clip0_253_150">
<rect width="30" height="27.5231" fill="white"/>
</clipPath>
</defs>
</svg>
