<svg width="32" height="29" viewBox="0 0 32 29" fill="none" xmlns="http://www.w3.org/2000/svg">
<g id="Group">
<g id="1711464248188-7141805_warning-triangle--frame-alert-warning-triangle-exclamation-caution">
<path id="1711464248188-7141805_Subtract" d="M19.1927 2.29663C17.5254 0.123293 14.4747 0.123293 12.8074 2.29663C11.164 4.43929 8.79737 7.90129 5.95404 13.1366C3.32337 17.9806 1.92604 21.3186 1.18337 23.51C0.770036 24.7306 0.968036 25.9413 1.64004 26.876C2.30404 27.7986 3.38004 28.3866 4.61604 28.5026C7.16804 28.7426 11.0567 29 16 29C20.9434 29 24.832 28.7426 27.384 28.5026C28.6194 28.3866 29.696 27.7986 30.36 26.876C31.032 25.9413 31.2307 24.7306 30.8167 23.5106C30.074 21.3186 28.6767 17.9806 26.046 13.1373C23.2027 7.90129 20.836 4.43863 19.1927 2.29663Z" fill="#FCEBD5"/>
<path id="1711464248188-7141805_Rectangle 172" d="M13.438 10.7732C13.3687 9.87392 13.7887 8.99725 14.67 8.80392C15.1071 8.71038 15.5531 8.66433 16 8.66658C16.447 8.66433 16.8929 8.71038 17.33 8.80392C18.2114 8.99725 18.6307 9.87392 18.562 10.7732C18.434 12.4419 18.204 15.1666 17.954 16.7626C17.862 17.3532 17.494 17.8499 16.902 17.9392C16.6033 17.9818 16.3018 18.002 16 17.9999C15.6983 18.002 15.3968 17.9818 15.098 17.9392C14.506 17.8499 14.138 17.3532 14.046 16.7626C13.796 15.1659 13.566 12.4426 13.438 10.7732Z" fill="#F59C00"/>
<path id="1711464248188-7141805_Ellipse 67" d="M13.6667 22.3333C13.6667 22.9522 13.9126 23.5457 14.3502 23.9832C14.7877 24.4208 15.3812 24.6667 16.0001 24.6667C16.6189 24.6667 17.2124 24.4208 17.65 23.9832C18.0876 23.5457 18.3334 22.9522 18.3334 22.3333C18.3334 21.7145 18.0876 21.121 17.65 20.6834C17.2124 20.2458 16.6189 20 16.0001 20C15.3812 20 14.7877 20.2458 14.3502 20.6834C13.9126 21.121 13.6667 21.7145 13.6667 22.3333Z" fill="#F59C00"/>
</g>
</g>
</svg>
