<svg width="30" height="30" viewBox="0 0 30 30" fill="none" xmlns="http://www.w3.org/2000/svg">
<g id="Group">
<g id="1711464248130-4629298_business-user-curriculum">
<path id="1711464248130-4629298_Subtract" d="M6.76463 0.460667C8.68396 0.236667 11.788 0 16.3333 0C17.6573 0 18.8586 0.02 19.944 0.054C20.034 0.0568678 20.1233 0.0718927 20.2093 0.0986667C20.9733 0.336667 23.028 1.18733 25.9013 3.99C28.61 6.63067 29.5446 8.566 29.85 9.41333C29.885 9.51037 29.9048 9.61224 29.9086 9.71533C29.9646 11.2227 30 12.9753 30 15C30 20.4067 29.7486 23.8713 29.516 25.9227C29.296 27.8553 27.828 29.3147 25.9026 29.5393C23.9833 29.7633 20.8793 30 16.3333 30C11.788 30 8.68396 29.7633 6.76463 29.5393C4.8393 29.3147 3.3713 27.8553 3.1513 25.9227C3.02396 24.8013 2.8913 23.258 2.79663 21.206C2.86196 21.2127 2.92796 21.218 2.9933 21.222C4.32738 21.3005 5.66358 21.3377 6.99996 21.3333C8.70663 21.3333 10.0293 21.2833 11.0066 21.222C12.2777 21.1493 13.4777 20.6116 14.378 19.7113C15.2782 18.8111 15.8159 17.6111 15.8886 16.34C15.95 15.362 16.0006 14.04 16.0006 12.3333C16.0006 10.6267 15.95 9.30467 15.8886 8.32667C15.8159 7.05568 15.2783 5.85581 14.3782 4.95555C13.4781 4.0553 12.2783 3.51753 11.0073 3.44467C9.67299 3.36612 8.33657 3.329 6.99996 3.33333C5.45196 3.33333 4.22063 3.37467 3.2753 3.428C3.7153 1.824 5.06063 0.659333 6.76396 0.461333L6.76463 0.460667Z" fill="#FCEBD5"/>
<path id="1711464248130-4629298_Subtract_2" fillRule="evenodd" clipRule="evenodd" d="M10.882 19.226C9.5894 19.3017 8.29478 19.3375 6.99999 19.3333C5.33332 19.3333 4.05199 19.284 3.11799 19.226C2.33323 19.1837 1.59177 18.853 1.03606 18.2973C0.480352 17.7415 0.149589 17.0001 0.107321 16.2153C0.0314284 14.9227 -0.00436655 13.6281 -1.19844e-05 12.3333C-1.19844e-05 10.6667 0.0493214 9.38533 0.107321 8.45133C0.149589 7.66657 0.480352 6.92511 1.03606 6.3694C1.59177 5.81369 2.33323 5.48293 3.11799 5.44066C4.41058 5.365 5.70519 5.3292 6.99999 5.33333C8.66665 5.33333 9.94799 5.38266 10.882 5.44066C11.6667 5.48293 12.4082 5.81369 12.9639 6.3694C13.5196 6.92511 13.8504 7.66657 13.8927 8.45133C13.9507 9.38533 14 10.666 14 12.3333C14 14 13.9507 15.2813 13.8927 16.2153C13.8504 17.0001 13.5196 17.7415 12.9639 18.2973C12.4082 18.853 11.6667 19.1837 10.882 19.226Z" fill="#F59C00"/>
<path id="1711464248130-4629298_Subtract_3" fillRule="evenodd" clipRule="evenodd" d="M5.04929 14.0127C4.50262 14.2997 4.02582 14.7035 3.65275 15.1955C3.27968 15.6875 3.01948 16.2555 2.89062 16.8594C3.03396 16.9407 3.19729 16.9927 3.37462 17.008C4.11062 17.068 5.29596 17.1334 6.99929 17.1334C8.70329 17.1334 9.88862 17.068 10.6246 17.008C10.8013 16.9934 10.9646 16.9414 11.1086 16.8587C10.9798 16.2549 10.7196 15.6868 10.3465 15.1948C9.97343 14.7028 9.49663 14.299 8.94996 14.012C9.41581 13.6133 9.7483 13.0815 9.90267 12.488C10.057 11.8946 10.0259 11.2682 9.81334 10.693C9.60082 10.1178 9.21716 9.62162 8.71403 9.27115C8.2109 8.92067 7.61246 8.73279 6.99929 8.73279C6.38613 8.73279 5.78769 8.92067 5.28455 9.27115C4.78142 9.62162 4.39777 10.1178 4.18525 10.693C3.97273 11.2682 3.94155 11.8946 4.09592 12.488C4.25028 13.0815 4.58278 13.6133 5.04862 14.012L5.04929 14.0127Z" fill="#FCEBD5"/>
<path id="1711464248130-4629298_Intersect" d="M29.8867 9.54331C28.1933 9.54331 25.2773 9.51664 23.6073 9.35597C21.7873 9.18131 20.3567 7.72931 20.178 5.86997C20.0307 4.33197 20.0013 1.76197 20 0.0566406C20.0707 0.0633073 20.1407 0.0773073 20.2087 0.0986406C20.9733 0.335974 23.0273 1.18664 25.9013 3.98997C28.6093 6.63064 29.544 8.56597 29.8493 9.41331C29.8647 9.45575 29.8772 9.49918 29.8867 9.54331Z" fill="#F59C00"/>
<path id="1711464248130-4629298_Subtract_4" fillRule="evenodd" clipRule="evenodd" d="M8.33331 24C8.0681 24 7.81374 24.1054 7.62621 24.2929C7.43867 24.4804 7.33331 24.7348 7.33331 25C7.33331 25.2652 7.43867 25.5196 7.62621 25.7071C7.81374 25.8947 8.0681 26 8.33331 26H24.3333C24.5985 26 24.8529 25.8947 25.0404 25.7071C25.228 25.5196 25.3333 25.2652 25.3333 25C25.3333 24.7348 25.228 24.4804 25.0404 24.2929C24.8529 24.1054 24.5985 24 24.3333 24H8.33331ZM18.6666 20.3334C18.6666 20.0681 18.772 19.8138 18.9595 19.6262C19.1471 19.4387 19.4014 19.3334 19.6666 19.3334H24.3333C24.5985 19.3334 24.8529 19.4387 25.0404 19.6262C25.228 19.8138 25.3333 20.0681 25.3333 20.3334C25.3333 20.5986 25.228 20.8529 25.0404 21.0405C24.8529 21.228 24.5985 21.3334 24.3333 21.3334H19.6666C19.4014 21.3334 19.1471 21.228 18.9595 21.0405C18.772 20.8529 18.6666 20.5986 18.6666 20.3334ZM19.6666 14.6667C19.4014 14.6667 19.1471 14.772 18.9595 14.9596C18.772 15.1471 18.6666 15.4015 18.6666 15.6667C18.6666 15.9319 18.772 16.1863 18.9595 16.3738C19.1471 16.5613 19.4014 16.6667 19.6666 16.6667H24.3333C24.5985 16.6667 24.8529 16.5613 25.0404 16.3738C25.228 16.1863 25.3333 15.9319 25.3333 15.6667C25.3333 15.4015 25.228 15.1471 25.0404 14.9596C24.8529 14.772 24.5985 14.6667 24.3333 14.6667H19.6666Z" fill="#F59C00"/>
</g>
</g>
</svg>
